<mxfile host="app.diagrams.net" modified="2020-09-28T22:32:46.211Z" agent="5.0 (Windows NT 6.1; Win64; x64) AppleWebKit/537.36 (KHTML, like Gecko) Chrome/85.0.4183.121 Safari/537.36" etag="VLRSHCvWqamZd0i9LncV" version="13.7.5" type="github">
  <diagram name="Road Map Website Developer" id="ad52d381-51e7-2e0d-a935-2d0ddd2fd229">
    <mxGraphModel dx="1543" dy="2446" grid="1" gridSize="10" guides="1" tooltips="1" connect="1" arrows="1" fold="1" page="1" pageScale="1" pageWidth="1100" pageHeight="850" background="#ffffff" math="0" shadow="0">
      <root>
        <mxCell id="0" />
        <mxCell id="1" parent="0" />
        <mxCell id="smbsbleAU1Tu5D1hDWez-1" value="&lt;span&gt;Pengertian Internet&lt;/span&gt;" style="whiteSpace=wrap;html=1;rounded=1;shadow=1;comic=0;labelBackgroundColor=none;strokeWidth=2;fontFamily=Verdana;fontSize=12;align=center;arcSize=50;fillColor=#dae8fc;strokeColor=#6c8ebf;" vertex="1" parent="1">
          <mxGeometry x="1289" y="-1625" width="180" height="30" as="geometry" />
        </mxCell>
        <mxCell id="smbsbleAU1Tu5D1hDWez-2" value="Internet" style="ellipse;whiteSpace=wrap;html=1;rounded=1;shadow=1;comic=0;labelBackgroundColor=none;strokeWidth=2;fontFamily=Verdana;fontSize=12;align=center;fillColor=#dae8fc;strokeColor=#6c8ebf;" vertex="1" parent="1">
          <mxGeometry x="380" y="-440" width="120" height="80" as="geometry" />
        </mxCell>
        <mxCell id="smbsbleAU1Tu5D1hDWez-134" value="" style="edgeStyle=orthogonalEdgeStyle;rounded=0;orthogonalLoop=1;jettySize=auto;html=1;entryX=0.5;entryY=0;entryDx=0;entryDy=0;strokeWidth=5;strokeColor=#003366;" edge="1" parent="1" source="smbsbleAU1Tu5D1hDWez-3" target="smbsbleAU1Tu5D1hDWez-6">
          <mxGeometry relative="1" as="geometry">
            <mxPoint x="1174" y="-1500" as="targetPoint" />
          </mxGeometry>
        </mxCell>
        <mxCell id="smbsbleAU1Tu5D1hDWez-3" value="Bagaiman Internet Bekerja?" style="rounded=1;whiteSpace=wrap;html=1;shadow=1;comic=0;labelBackgroundColor=none;strokeWidth=2;fontFamily=Verdana;fontSize=12;align=center;fillColor=#0050ef;strokeColor=#001DBC;fontColor=#ffffff;" vertex="1" parent="1">
          <mxGeometry x="1114" y="-1640" width="120" height="60" as="geometry" />
        </mxCell>
        <mxCell id="smbsbleAU1Tu5D1hDWez-6" value="Apa Itu HTTP?" style="rounded=1;whiteSpace=wrap;html=1;shadow=1;comic=0;labelBackgroundColor=none;strokeWidth=2;fontFamily=Verdana;fontSize=12;align=center;fillColor=#0050ef;strokeColor=#001DBC;fontColor=#ffffff;" vertex="1" parent="1">
          <mxGeometry x="1114" y="-1420" width="120" height="60" as="geometry" />
        </mxCell>
        <mxCell id="smbsbleAU1Tu5D1hDWez-8" value="DNS &amp;amp; IP Address" style="rounded=1;whiteSpace=wrap;html=1;shadow=1;comic=0;labelBackgroundColor=none;strokeWidth=2;fontFamily=Verdana;fontSize=12;align=center;fillColor=#0050ef;strokeColor=#001DBC;fontColor=#ffffff;" vertex="1" parent="1">
          <mxGeometry x="1114" y="-1250" width="120" height="60" as="geometry" />
        </mxCell>
        <mxCell id="smbsbleAU1Tu5D1hDWez-10" value="Apa Itu Hosting" style="rounded=1;whiteSpace=wrap;html=1;shadow=1;comic=0;labelBackgroundColor=none;strokeWidth=2;fontFamily=Verdana;fontSize=12;align=center;fillColor=#f5f5f5;strokeColor=#666666;fontColor=#333333;" vertex="1" parent="1">
          <mxGeometry x="380" y="-310" width="120" height="60" as="geometry" />
        </mxCell>
        <mxCell id="smbsbleAU1Tu5D1hDWez-19" value="Cara Kerja Internet&lt;br&gt;Bagaimana Internet Bisa Terhubung Melalui Kabel &amp;amp; Wifi" style="whiteSpace=wrap;html=1;rounded=1;shadow=1;comic=0;labelBackgroundColor=none;strokeWidth=2;fontFamily=Verdana;fontSize=12;align=center;arcSize=50;fillColor=#dae8fc;strokeColor=#6c8ebf;" vertex="1" parent="1">
          <mxGeometry x="1289" y="-1580" width="180" height="80" as="geometry" />
        </mxCell>
        <mxCell id="smbsbleAU1Tu5D1hDWez-35" value="Encription, Cybersecurity, and Crime Internet" style="rounded=1;whiteSpace=wrap;html=1;shadow=1;comic=0;labelBackgroundColor=none;strokeWidth=2;fontFamily=Verdana;fontSize=12;align=center;fillColor=#f5f5f5;strokeColor=#666666;fontColor=#333333;" vertex="1" parent="1">
          <mxGeometry x="620" y="-310" width="120" height="60" as="geometry" />
        </mxCell>
        <mxCell id="smbsbleAU1Tu5D1hDWez-36" value="" style="endArrow=none;html=1;entryX=0.417;entryY=-0.045;entryDx=0;entryDy=0;exitX=0.976;exitY=0.752;exitDx=0;exitDy=0;exitPerimeter=0;entryPerimeter=0;" edge="1" parent="1" source="smbsbleAU1Tu5D1hDWez-2" target="smbsbleAU1Tu5D1hDWez-35">
          <mxGeometry width="50" height="50" relative="1" as="geometry">
            <mxPoint x="510" y="-390" as="sourcePoint" />
            <mxPoint x="690.0000000000002" y="-490" as="targetPoint" />
          </mxGeometry>
        </mxCell>
        <mxCell id="smbsbleAU1Tu5D1hDWez-37" value="" style="endArrow=none;html=1;entryX=0.5;entryY=0;entryDx=0;entryDy=0;exitX=0.5;exitY=1;exitDx=0;exitDy=0;" edge="1" parent="1" source="smbsbleAU1Tu5D1hDWez-2" target="smbsbleAU1Tu5D1hDWez-10">
          <mxGeometry width="50" height="50" relative="1" as="geometry">
            <mxPoint x="459.9999999999999" y="-339.99999999999994" as="sourcePoint" />
            <mxPoint x="632.9200000000002" y="-272.86000000000007" as="targetPoint" />
          </mxGeometry>
        </mxCell>
        <mxCell id="smbsbleAU1Tu5D1hDWez-39" value="Cara Kerja Internet dan Simulasinya" style="whiteSpace=wrap;html=1;rounded=1;shadow=1;comic=0;labelBackgroundColor=none;strokeWidth=2;fontFamily=Verdana;fontSize=12;align=center;arcSize=50;" vertex="1" parent="1">
          <mxGeometry x="1289" y="-1486" width="180" height="40" as="geometry" />
        </mxCell>
        <mxCell id="smbsbleAU1Tu5D1hDWez-41" value="" style="endArrow=none;html=1;entryX=1;entryY=0.5;entryDx=0;entryDy=0;exitX=0;exitY=0.5;exitDx=0;exitDy=0;" edge="1" parent="1" source="smbsbleAU1Tu5D1hDWez-1" target="smbsbleAU1Tu5D1hDWez-3">
          <mxGeometry width="50" height="50" relative="1" as="geometry">
            <mxPoint x="1050" y="-1630" as="sourcePoint" />
            <mxPoint x="890" y="-1450" as="targetPoint" />
          </mxGeometry>
        </mxCell>
        <mxCell id="smbsbleAU1Tu5D1hDWez-44" value="&lt;span&gt;Pengertian HTTP dan HTML&lt;/span&gt;" style="whiteSpace=wrap;html=1;rounded=1;shadow=1;comic=0;labelBackgroundColor=none;strokeWidth=2;fontFamily=Verdana;fontSize=12;align=center;arcSize=50;fillColor=#dae8fc;strokeColor=#6c8ebf;" vertex="1" parent="1">
          <mxGeometry x="1289" y="-1405" width="180" height="30" as="geometry" />
        </mxCell>
        <mxCell id="smbsbleAU1Tu5D1hDWez-45" value="&lt;span&gt;Cara Kerja HTTP&lt;/span&gt;" style="whiteSpace=wrap;html=1;rounded=1;shadow=1;comic=0;labelBackgroundColor=none;strokeWidth=2;fontFamily=Verdana;fontSize=12;align=center;arcSize=50;fillColor=#dae8fc;strokeColor=#6c8ebf;" vertex="1" parent="1">
          <mxGeometry x="1289" y="-1360" width="180" height="30" as="geometry" />
        </mxCell>
        <mxCell id="smbsbleAU1Tu5D1hDWez-51" value="&lt;span&gt;Proses Perkembangan HTTP&lt;/span&gt;" style="whiteSpace=wrap;html=1;rounded=1;shadow=1;comic=0;labelBackgroundColor=none;strokeWidth=2;fontFamily=Verdana;fontSize=12;align=center;arcSize=50;fillColor=#dae8fc;strokeColor=#6c8ebf;" vertex="1" parent="1">
          <mxGeometry x="1289" y="-1315" width="180" height="30" as="geometry" />
        </mxCell>
        <mxCell id="smbsbleAU1Tu5D1hDWez-57" value="&lt;span&gt;Pengenalan Web Browser &amp;amp; Pengaruhnya terhadap CSS dan JavaScript&lt;/span&gt;" style="whiteSpace=wrap;html=1;rounded=1;shadow=1;comic=0;labelBackgroundColor=none;strokeWidth=2;fontFamily=Verdana;fontSize=12;align=center;arcSize=50;fillColor=#dae8fc;strokeColor=#6c8ebf;" vertex="1" parent="1">
          <mxGeometry x="1289" y="-700" width="180" height="70" as="geometry" />
        </mxCell>
        <mxCell id="smbsbleAU1Tu5D1hDWez-58" value="&lt;span&gt;Menerjemahkan Koding Struktru HTML, CSS, Java Script ke dalam tampilan Web Browser&lt;/span&gt;" style="whiteSpace=wrap;html=1;rounded=1;shadow=1;comic=0;labelBackgroundColor=none;strokeWidth=2;fontFamily=Verdana;fontSize=12;align=center;arcSize=50;fillColor=#dae8fc;strokeColor=#6c8ebf;" vertex="1" parent="1">
          <mxGeometry x="1289" y="-618.5" width="180" height="70" as="geometry" />
        </mxCell>
        <mxCell id="smbsbleAU1Tu5D1hDWez-61" value="" style="endArrow=none;html=1;entryX=0;entryY=0.5;entryDx=0;entryDy=0;exitX=1;exitY=0.75;exitDx=0;exitDy=0;" edge="1" parent="1" source="smbsbleAU1Tu5D1hDWez-160" target="smbsbleAU1Tu5D1hDWez-57">
          <mxGeometry width="50" height="50" relative="1" as="geometry">
            <mxPoint x="670" y="-810" as="sourcePoint" />
            <mxPoint x="520" y="-730" as="targetPoint" />
          </mxGeometry>
        </mxCell>
        <mxCell id="smbsbleAU1Tu5D1hDWez-62" value="&lt;span&gt;Konstruksi Pharsing dan DOM HTML&lt;/span&gt;" style="whiteSpace=wrap;html=1;rounded=1;shadow=1;comic=0;labelBackgroundColor=none;strokeWidth=2;fontFamily=Verdana;fontSize=12;align=center;arcSize=50;" vertex="1" parent="1">
          <mxGeometry x="1289" y="-535" width="180" height="40" as="geometry" />
        </mxCell>
        <mxCell id="smbsbleAU1Tu5D1hDWez-63" value="&lt;span&gt;Layout&lt;/span&gt;" style="whiteSpace=wrap;html=1;rounded=1;shadow=1;comic=0;labelBackgroundColor=none;strokeWidth=2;fontFamily=Verdana;fontSize=12;align=center;arcSize=50;fillColor=#dae8fc;strokeColor=#6c8ebf;" vertex="1" parent="1">
          <mxGeometry x="1289" y="-480" width="180" height="40" as="geometry" />
        </mxCell>
        <mxCell id="smbsbleAU1Tu5D1hDWez-64" value="&lt;span&gt;Painting&lt;/span&gt;" style="whiteSpace=wrap;html=1;rounded=1;shadow=1;comic=0;labelBackgroundColor=none;strokeWidth=2;fontFamily=Verdana;fontSize=12;align=center;arcSize=50;" vertex="1" parent="1">
          <mxGeometry x="1289" y="-422" width="180" height="40" as="geometry" />
        </mxCell>
        <mxCell id="smbsbleAU1Tu5D1hDWez-67" value="&lt;span&gt;CSS 2 Visual Model&lt;/span&gt;" style="whiteSpace=wrap;html=1;rounded=1;shadow=1;comic=0;labelBackgroundColor=none;strokeWidth=2;fontFamily=Verdana;fontSize=12;align=center;arcSize=50;fillColor=#dae8fc;strokeColor=#6c8ebf;" vertex="1" parent="1">
          <mxGeometry x="1289" y="-366" width="180" height="40" as="geometry" />
        </mxCell>
        <mxCell id="smbsbleAU1Tu5D1hDWez-70" value="" style="endArrow=none;html=1;entryX=0;entryY=0.5;entryDx=0;entryDy=0;exitX=1;exitY=1;exitDx=0;exitDy=0;" edge="1" parent="1" source="smbsbleAU1Tu5D1hDWez-160" target="smbsbleAU1Tu5D1hDWez-58">
          <mxGeometry width="50" height="50" relative="1" as="geometry">
            <mxPoint x="1234" y="-670" as="sourcePoint" />
            <mxPoint x="690" y="-950" as="targetPoint" />
          </mxGeometry>
        </mxCell>
        <mxCell id="smbsbleAU1Tu5D1hDWez-71" value="" style="endArrow=none;html=1;entryX=0;entryY=0.75;entryDx=0;entryDy=0;exitX=0.75;exitY=1;exitDx=0;exitDy=0;" edge="1" parent="1" source="smbsbleAU1Tu5D1hDWez-160" target="smbsbleAU1Tu5D1hDWez-62">
          <mxGeometry width="50" height="50" relative="1" as="geometry">
            <mxPoint x="720" y="-670" as="sourcePoint" />
            <mxPoint x="820" y="-860" as="targetPoint" />
          </mxGeometry>
        </mxCell>
        <mxCell id="smbsbleAU1Tu5D1hDWez-72" value="" style="endArrow=none;html=1;entryX=0;entryY=0.5;entryDx=0;entryDy=0;exitX=0.75;exitY=1;exitDx=0;exitDy=0;" edge="1" parent="1" source="smbsbleAU1Tu5D1hDWez-160" target="smbsbleAU1Tu5D1hDWez-63">
          <mxGeometry width="50" height="50" relative="1" as="geometry">
            <mxPoint x="750" y="-670" as="sourcePoint" />
            <mxPoint x="850" y="-815" as="targetPoint" />
          </mxGeometry>
        </mxCell>
        <mxCell id="smbsbleAU1Tu5D1hDWez-73" value="" style="endArrow=none;html=1;entryX=0;entryY=0.75;entryDx=0;entryDy=0;exitX=0.5;exitY=1;exitDx=0;exitDy=0;" edge="1" parent="1" source="smbsbleAU1Tu5D1hDWez-160" target="smbsbleAU1Tu5D1hDWez-64">
          <mxGeometry width="50" height="50" relative="1" as="geometry">
            <mxPoint x="750" y="-670" as="sourcePoint" />
            <mxPoint x="900" y="-750" as="targetPoint" />
          </mxGeometry>
        </mxCell>
        <mxCell id="smbsbleAU1Tu5D1hDWez-75" value="" style="endArrow=none;html=1;entryX=0;entryY=0.5;entryDx=0;entryDy=0;exitX=0.5;exitY=1;exitDx=0;exitDy=0;" edge="1" parent="1" source="smbsbleAU1Tu5D1hDWez-160" target="smbsbleAU1Tu5D1hDWez-67">
          <mxGeometry width="50" height="50" relative="1" as="geometry">
            <mxPoint x="750" y="-640" as="sourcePoint" />
            <mxPoint x="860" y="-690" as="targetPoint" />
          </mxGeometry>
        </mxCell>
        <mxCell id="smbsbleAU1Tu5D1hDWez-76" value="Apa Itu DNS" style="whiteSpace=wrap;html=1;rounded=1;shadow=1;comic=0;labelBackgroundColor=none;strokeWidth=2;fontFamily=Verdana;fontSize=12;align=center;arcSize=50;fillColor=#dae8fc;strokeColor=#6c8ebf;" vertex="1" parent="1">
          <mxGeometry x="1289" y="-1240" width="180" height="40" as="geometry" />
        </mxCell>
        <mxCell id="smbsbleAU1Tu5D1hDWez-77" value="Bagaimana DNS Bekerja" style="whiteSpace=wrap;html=1;rounded=1;shadow=1;comic=0;labelBackgroundColor=none;strokeWidth=2;fontFamily=Verdana;fontSize=12;align=center;arcSize=50;fillColor=#dae8fc;strokeColor=#6c8ebf;" vertex="1" parent="1">
          <mxGeometry x="1289" y="-1185" width="180" height="40" as="geometry" />
        </mxCell>
        <mxCell id="smbsbleAU1Tu5D1hDWez-78" value="Pengertian IP Address &amp;amp; Cara Kerjanya" style="whiteSpace=wrap;html=1;rounded=1;shadow=1;comic=0;labelBackgroundColor=none;strokeWidth=2;fontFamily=Verdana;fontSize=12;align=center;arcSize=50;fillColor=#dae8fc;strokeColor=#6c8ebf;" vertex="1" parent="1">
          <mxGeometry x="1289" y="-1130" width="180" height="40" as="geometry" />
        </mxCell>
        <mxCell id="smbsbleAU1Tu5D1hDWez-84" value="Pengertian Domain" style="whiteSpace=wrap;html=1;rounded=1;shadow=1;comic=0;labelBackgroundColor=none;strokeWidth=2;fontFamily=Verdana;fontSize=12;align=center;arcSize=50;fillColor=#dae8fc;strokeColor=#6c8ebf;" vertex="1" parent="1">
          <mxGeometry x="1289" y="-290" width="180" height="40" as="geometry" />
        </mxCell>
        <mxCell id="smbsbleAU1Tu5D1hDWez-85" value="Cara Kerja Domain" style="whiteSpace=wrap;html=1;rounded=1;shadow=1;comic=0;labelBackgroundColor=none;strokeWidth=2;fontFamily=Verdana;fontSize=12;align=center;arcSize=50;fillColor=#dae8fc;strokeColor=#6c8ebf;" vertex="1" parent="1">
          <mxGeometry x="1289" y="-237" width="180" height="40" as="geometry" />
        </mxCell>
        <mxCell id="smbsbleAU1Tu5D1hDWez-86" value="Tipe Domain dan Cara Mendapatkannya" style="whiteSpace=wrap;html=1;rounded=1;shadow=1;comic=0;labelBackgroundColor=none;strokeWidth=2;fontFamily=Verdana;fontSize=12;align=center;arcSize=50;" vertex="1" parent="1">
          <mxGeometry x="1289" y="-184" width="180" height="40" as="geometry" />
        </mxCell>
        <mxCell id="smbsbleAU1Tu5D1hDWez-87" value="" style="endArrow=none;html=1;exitX=1;exitY=0.5;exitDx=0;exitDy=0;entryX=0;entryY=0.5;entryDx=0;entryDy=0;" edge="1" parent="1" source="smbsbleAU1Tu5D1hDWez-162" target="smbsbleAU1Tu5D1hDWez-84">
          <mxGeometry width="50" height="50" relative="1" as="geometry">
            <mxPoint x="120" y="-550" as="sourcePoint" />
            <mxPoint x="130" y="-460" as="targetPoint" />
          </mxGeometry>
        </mxCell>
        <mxCell id="smbsbleAU1Tu5D1hDWez-88" value="" style="endArrow=none;html=1;exitX=1;exitY=1;exitDx=0;exitDy=0;entryX=0;entryY=0.5;entryDx=0;entryDy=0;" edge="1" parent="1" source="smbsbleAU1Tu5D1hDWez-162" target="smbsbleAU1Tu5D1hDWez-85">
          <mxGeometry width="50" height="50" relative="1" as="geometry">
            <mxPoint x="180" y="-430" as="sourcePoint" />
            <mxPoint x="90" y="-400" as="targetPoint" />
          </mxGeometry>
        </mxCell>
        <mxCell id="smbsbleAU1Tu5D1hDWez-89" style="edgeStyle=orthogonalEdgeStyle;rounded=0;orthogonalLoop=1;jettySize=auto;html=1;exitX=0.5;exitY=1;exitDx=0;exitDy=0;" edge="1" parent="1" source="smbsbleAU1Tu5D1hDWez-78" target="smbsbleAU1Tu5D1hDWez-78">
          <mxGeometry relative="1" as="geometry" />
        </mxCell>
        <mxCell id="smbsbleAU1Tu5D1hDWez-90" value="" style="endArrow=none;html=1;exitX=0.5;exitY=1;exitDx=0;exitDy=0;entryX=0;entryY=0.5;entryDx=0;entryDy=0;" edge="1" parent="1" source="smbsbleAU1Tu5D1hDWez-162" target="smbsbleAU1Tu5D1hDWez-86">
          <mxGeometry width="50" height="50" relative="1" as="geometry">
            <mxPoint x="210" y="-430" as="sourcePoint" />
            <mxPoint x="120" y="-330" as="targetPoint" />
          </mxGeometry>
        </mxCell>
        <mxCell id="smbsbleAU1Tu5D1hDWez-92" value="Pengertian Hosting" style="whiteSpace=wrap;html=1;rounded=1;shadow=1;comic=0;labelBackgroundColor=none;strokeWidth=2;fontFamily=Verdana;fontSize=12;align=center;arcSize=50;fillColor=#dae8fc;strokeColor=#6c8ebf;" vertex="1" parent="1">
          <mxGeometry x="1289" y="-110" width="180" height="40" as="geometry" />
        </mxCell>
        <mxCell id="smbsbleAU1Tu5D1hDWez-103" value="Encryption &amp;amp; Public Keys" style="whiteSpace=wrap;html=1;rounded=1;shadow=1;comic=0;labelBackgroundColor=none;strokeWidth=2;fontFamily=Verdana;fontSize=12;align=center;arcSize=50;" vertex="1" parent="1">
          <mxGeometry x="800" y="-350" width="180" height="40" as="geometry" />
        </mxCell>
        <mxCell id="smbsbleAU1Tu5D1hDWez-104" value="Encryption &amp;amp; Public Keys" style="whiteSpace=wrap;html=1;rounded=1;shadow=1;comic=0;labelBackgroundColor=none;strokeWidth=2;fontFamily=Verdana;fontSize=12;align=center;arcSize=50;" vertex="1" parent="1">
          <mxGeometry x="800" y="-240" width="180" height="40" as="geometry" />
        </mxCell>
        <mxCell id="smbsbleAU1Tu5D1hDWez-105" value="" style="endArrow=none;html=1;entryX=0;entryY=0.25;entryDx=0;entryDy=0;exitX=1;exitY=0.5;exitDx=0;exitDy=0;" edge="1" parent="1" source="smbsbleAU1Tu5D1hDWez-35" target="smbsbleAU1Tu5D1hDWez-103">
          <mxGeometry width="50" height="50" relative="1" as="geometry">
            <mxPoint x="750" y="-505" as="sourcePoint" />
            <mxPoint x="860" y="-510" as="targetPoint" />
          </mxGeometry>
        </mxCell>
        <mxCell id="smbsbleAU1Tu5D1hDWez-106" value="" style="endArrow=none;html=1;entryX=0;entryY=0.5;entryDx=0;entryDy=0;exitX=1;exitY=0.5;exitDx=0;exitDy=0;" edge="1" parent="1" source="smbsbleAU1Tu5D1hDWez-35" target="smbsbleAU1Tu5D1hDWez-104">
          <mxGeometry width="50" height="50" relative="1" as="geometry">
            <mxPoint x="750" y="-270" as="sourcePoint" />
            <mxPoint x="810" y="-330" as="targetPoint" />
          </mxGeometry>
        </mxCell>
        <mxCell id="smbsbleAU1Tu5D1hDWez-113" value="&lt;b&gt;&lt;font style=&quot;background-color: rgb(255 , 255 , 0) ; font-size: 24px&quot;&gt;1&lt;/font&gt;&lt;/b&gt;" style="text;html=1;strokeColor=none;fillColor=none;align=center;verticalAlign=middle;whiteSpace=wrap;rounded=0;" vertex="1" parent="1">
          <mxGeometry x="280" y="-540" width="30" height="20" as="geometry" />
        </mxCell>
        <mxCell id="smbsbleAU1Tu5D1hDWez-114" value="&lt;b&gt;&lt;font style=&quot;background-color: rgb(255 , 255 , 0) ; font-size: 24px&quot;&gt;2&lt;/font&gt;&lt;/b&gt;" style="text;html=1;strokeColor=none;fillColor=none;align=center;verticalAlign=middle;whiteSpace=wrap;rounded=0;" vertex="1" parent="1">
          <mxGeometry x="500" y="-540" width="30" height="20" as="geometry" />
        </mxCell>
        <mxCell id="smbsbleAU1Tu5D1hDWez-115" value="&lt;b&gt;&lt;font style=&quot;background-color: rgb(255 , 255 , 0) ; font-size: 24px&quot;&gt;3&lt;/font&gt;&lt;/b&gt;" style="text;html=1;strokeColor=none;fillColor=none;align=center;verticalAlign=middle;whiteSpace=wrap;rounded=0;" vertex="1" parent="1">
          <mxGeometry x="590" y="-540" width="30" height="20" as="geometry" />
        </mxCell>
        <mxCell id="smbsbleAU1Tu5D1hDWez-116" value="&lt;b&gt;&lt;font style=&quot;background-color: rgb(255 , 255 , 0) ; font-size: 24px&quot;&gt;4&lt;/font&gt;&lt;/b&gt;" style="text;html=1;strokeColor=none;fillColor=none;align=center;verticalAlign=middle;whiteSpace=wrap;rounded=0;" vertex="1" parent="1">
          <mxGeometry x="95" y="-460" width="30" height="20" as="geometry" />
        </mxCell>
        <mxCell id="smbsbleAU1Tu5D1hDWez-117" value="&lt;b&gt;&lt;font style=&quot;background-color: rgb(255 , 255 , 0) ; font-size: 24px&quot;&gt;5&lt;/font&gt;&lt;/b&gt;" style="text;html=1;strokeColor=none;fillColor=none;align=center;verticalAlign=middle;whiteSpace=wrap;rounded=0;" vertex="1" parent="1">
          <mxGeometry x="290" y="-290" width="30" height="20" as="geometry" />
        </mxCell>
        <mxCell id="smbsbleAU1Tu5D1hDWez-120" value="&lt;b&gt;&lt;font style=&quot;background-color: rgb(255 , 255 , 0) ; font-size: 24px&quot;&gt;6&lt;/font&gt;&lt;/b&gt;" style="text;html=1;strokeColor=none;fillColor=none;align=center;verticalAlign=middle;whiteSpace=wrap;rounded=0;" vertex="1" parent="1">
          <mxGeometry x="500" y="-290" width="30" height="20" as="geometry" />
        </mxCell>
        <mxCell id="smbsbleAU1Tu5D1hDWez-121" value="&lt;b&gt;&lt;font style=&quot;background-color: rgb(255 , 255 , 0) ; font-size: 24px&quot;&gt;7&lt;/font&gt;&lt;/b&gt;" style="text;html=1;strokeColor=none;fillColor=none;align=center;verticalAlign=middle;whiteSpace=wrap;rounded=0;" vertex="1" parent="1">
          <mxGeometry x="590" y="-290" width="30" height="20" as="geometry" />
        </mxCell>
        <mxCell id="smbsbleAU1Tu5D1hDWez-129" value="" style="endArrow=none;html=1;entryX=1;entryY=1;entryDx=0;entryDy=0;exitX=0;exitY=0.25;exitDx=0;exitDy=0;" edge="1" parent="1" source="smbsbleAU1Tu5D1hDWez-19" target="smbsbleAU1Tu5D1hDWez-3">
          <mxGeometry width="50" height="50" relative="1" as="geometry">
            <mxPoint x="1299" y="-1600" as="sourcePoint" />
            <mxPoint x="1244" y="-1600" as="targetPoint" />
          </mxGeometry>
        </mxCell>
        <mxCell id="smbsbleAU1Tu5D1hDWez-130" value="" style="endArrow=none;html=1;entryX=0.5;entryY=1;entryDx=0;entryDy=0;exitX=0;exitY=0.5;exitDx=0;exitDy=0;" edge="1" parent="1" source="smbsbleAU1Tu5D1hDWez-39" target="smbsbleAU1Tu5D1hDWez-3">
          <mxGeometry width="50" height="50" relative="1" as="geometry">
            <mxPoint x="1299" y="-1540" as="sourcePoint" />
            <mxPoint x="1244" y="-1570" as="targetPoint" />
          </mxGeometry>
        </mxCell>
        <mxCell id="smbsbleAU1Tu5D1hDWez-135" value="" style="endArrow=none;html=1;entryX=1;entryY=0.5;entryDx=0;entryDy=0;exitX=0;exitY=0.5;exitDx=0;exitDy=0;" edge="1" parent="1" source="smbsbleAU1Tu5D1hDWez-44" target="smbsbleAU1Tu5D1hDWez-6">
          <mxGeometry width="50" height="50" relative="1" as="geometry">
            <mxPoint x="1299" y="-1490" as="sourcePoint" />
            <mxPoint x="1184" y="-1630" as="targetPoint" />
          </mxGeometry>
        </mxCell>
        <mxCell id="smbsbleAU1Tu5D1hDWez-136" value="" style="endArrow=none;html=1;entryX=1;entryY=1;entryDx=0;entryDy=0;exitX=0;exitY=0.5;exitDx=0;exitDy=0;" edge="1" parent="1" source="smbsbleAU1Tu5D1hDWez-45" target="smbsbleAU1Tu5D1hDWez-6">
          <mxGeometry width="50" height="50" relative="1" as="geometry">
            <mxPoint x="1299" y="-1380" as="sourcePoint" />
            <mxPoint x="1244" y="-1380" as="targetPoint" />
          </mxGeometry>
        </mxCell>
        <mxCell id="smbsbleAU1Tu5D1hDWez-137" value="" style="endArrow=none;html=1;entryX=0.5;entryY=1;entryDx=0;entryDy=0;exitX=0;exitY=0.5;exitDx=0;exitDy=0;" edge="1" parent="1" source="smbsbleAU1Tu5D1hDWez-51" target="smbsbleAU1Tu5D1hDWez-6">
          <mxGeometry width="50" height="50" relative="1" as="geometry">
            <mxPoint x="1299" y="-1325" as="sourcePoint" />
            <mxPoint x="1244" y="-1350" as="targetPoint" />
          </mxGeometry>
        </mxCell>
        <mxCell id="smbsbleAU1Tu5D1hDWez-138" value="" style="edgeStyle=orthogonalEdgeStyle;rounded=0;orthogonalLoop=1;jettySize=auto;html=1;strokeWidth=5;strokeColor=#003366;exitX=0.5;exitY=1;exitDx=0;exitDy=0;entryX=0.5;entryY=0;entryDx=0;entryDy=0;" edge="1" parent="1" source="smbsbleAU1Tu5D1hDWez-6" target="smbsbleAU1Tu5D1hDWez-8">
          <mxGeometry relative="1" as="geometry">
            <mxPoint x="1110" y="-1230" as="sourcePoint" />
            <mxPoint x="1140" y="-1180" as="targetPoint" />
          </mxGeometry>
        </mxCell>
        <mxCell id="smbsbleAU1Tu5D1hDWez-140" value="" style="endArrow=none;html=1;entryX=1;entryY=0.5;entryDx=0;entryDy=0;exitX=0;exitY=0.5;exitDx=0;exitDy=0;" edge="1" parent="1" source="smbsbleAU1Tu5D1hDWez-76" target="smbsbleAU1Tu5D1hDWez-8">
          <mxGeometry width="50" height="50" relative="1" as="geometry">
            <mxPoint x="1335" y="-1177.5" as="sourcePoint" />
            <mxPoint x="1220" y="-1262.5" as="targetPoint" />
          </mxGeometry>
        </mxCell>
        <mxCell id="smbsbleAU1Tu5D1hDWez-141" value="" style="endArrow=none;html=1;entryX=1;entryY=1;entryDx=0;entryDy=0;exitX=0;exitY=0.5;exitDx=0;exitDy=0;" edge="1" parent="1" source="smbsbleAU1Tu5D1hDWez-77" target="smbsbleAU1Tu5D1hDWez-8">
          <mxGeometry width="50" height="50" relative="1" as="geometry">
            <mxPoint x="1299" y="-1210" as="sourcePoint" />
            <mxPoint x="1244" y="-1210" as="targetPoint" />
          </mxGeometry>
        </mxCell>
        <mxCell id="smbsbleAU1Tu5D1hDWez-142" value="" style="endArrow=none;html=1;entryX=0.5;entryY=1;entryDx=0;entryDy=0;exitX=0;exitY=0.5;exitDx=0;exitDy=0;" edge="1" parent="1" source="smbsbleAU1Tu5D1hDWez-78" target="smbsbleAU1Tu5D1hDWez-8">
          <mxGeometry width="50" height="50" relative="1" as="geometry">
            <mxPoint x="1299" y="-1140" as="sourcePoint" />
            <mxPoint x="1244" y="-1180" as="targetPoint" />
          </mxGeometry>
        </mxCell>
        <mxCell id="smbsbleAU1Tu5D1hDWez-146" value="" style="edgeStyle=orthogonalEdgeStyle;rounded=0;orthogonalLoop=1;jettySize=auto;html=1;strokeWidth=5;strokeColor=#003366;exitX=0.5;exitY=1;exitDx=0;exitDy=0;entryX=0;entryY=0.5;entryDx=0;entryDy=0;" edge="1" parent="1" source="smbsbleAU1Tu5D1hDWez-8" target="smbsbleAU1Tu5D1hDWez-144">
          <mxGeometry relative="1" as="geometry">
            <mxPoint x="1180" y="-1070" as="sourcePoint" />
            <mxPoint x="1180" y="-920" as="targetPoint" />
          </mxGeometry>
        </mxCell>
        <mxCell id="smbsbleAU1Tu5D1hDWez-171" value="" style="endArrow=none;html=1;exitX=1;exitY=0.5;exitDx=0;exitDy=0;" edge="1" parent="1" source="smbsbleAU1Tu5D1hDWez-166">
          <mxGeometry width="50" height="50" relative="1" as="geometry">
            <mxPoint x="1184" y="-260" as="sourcePoint" />
            <mxPoint x="1290" y="-90" as="targetPoint" />
          </mxGeometry>
        </mxCell>
        <mxCell id="smbsbleAU1Tu5D1hDWez-184" value="Mendalami HTML" style="rounded=1;whiteSpace=wrap;html=1;shadow=1;comic=0;labelBackgroundColor=none;strokeWidth=2;fontFamily=Verdana;fontSize=12;align=center;fillColor=#0050ef;strokeColor=#001DBC;fontColor=#ffffff;" vertex="1" parent="1">
          <mxGeometry x="1500" y="200" width="120" height="60" as="geometry" />
        </mxCell>
        <mxCell id="smbsbleAU1Tu5D1hDWez-124" value="Roadmap Website Developer" style="swimlane;html=1;childLayout=stackLayout;resizeParent=1;resizeParentMax=0;startSize=20;" vertex="1" parent="1">
          <mxGeometry x="1100" y="-1700" width="1390" height="7140" as="geometry">
            <mxRectangle x="1100" y="-1700" width="200" height="20" as="alternateBounds" />
          </mxGeometry>
        </mxCell>
        <mxCell id="smbsbleAU1Tu5D1hDWez-161" value="" style="edgeStyle=orthogonalEdgeStyle;rounded=0;orthogonalLoop=1;jettySize=auto;html=1;strokeWidth=5;strokeColor=#003366;exitX=0.5;exitY=1;exitDx=0;exitDy=0;entryX=1;entryY=0.5;entryDx=0;entryDy=0;" edge="1" parent="smbsbleAU1Tu5D1hDWez-124" source="smbsbleAU1Tu5D1hDWez-144" target="smbsbleAU1Tu5D1hDWez-160">
          <mxGeometry relative="1" as="geometry">
            <mxPoint x="84" y="480" as="sourcePoint" />
            <mxPoint x="410" y="699.9999999999998" as="targetPoint" />
          </mxGeometry>
        </mxCell>
        <mxCell id="smbsbleAU1Tu5D1hDWez-125" value="IINTERNET &amp;amp; PERSONAL KNOWLEDGE" style="swimlane;html=1;startSize=20;" vertex="1" parent="smbsbleAU1Tu5D1hDWez-124">
          <mxGeometry y="20" width="390" height="7120" as="geometry" />
        </mxCell>
        <mxCell id="smbsbleAU1Tu5D1hDWez-902" value="Version Control System" style="rounded=1;whiteSpace=wrap;html=1;shadow=1;comic=0;labelBackgroundColor=none;strokeWidth=2;fontFamily=Verdana;fontSize=12;align=center;fillColor=#0050ef;strokeColor=#001DBC;fontColor=#ffffff;" vertex="1" parent="smbsbleAU1Tu5D1hDWez-125">
          <mxGeometry x="14" y="2740" width="120" height="60" as="geometry" />
        </mxCell>
        <mxCell id="smbsbleAU1Tu5D1hDWez-178" value="Encription, Cybersecurity, And Crime Internet" style="rounded=1;whiteSpace=wrap;html=1;shadow=1;comic=0;labelBackgroundColor=none;strokeWidth=2;fontFamily=Verdana;fontSize=12;align=center;fillColor=#0050ef;strokeColor=#001DBC;fontColor=#ffffff;" vertex="1" parent="smbsbleAU1Tu5D1hDWez-125">
          <mxGeometry x="14" y="1760" width="120" height="60" as="geometry" />
        </mxCell>
        <mxCell id="smbsbleAU1Tu5D1hDWez-160" value="Web Browser" style="rounded=1;whiteSpace=wrap;html=1;shadow=1;comic=0;labelBackgroundColor=none;strokeWidth=2;fontFamily=Verdana;fontSize=12;align=center;fillColor=#0050ef;strokeColor=#001DBC;fontColor=#ffffff;" vertex="1" parent="smbsbleAU1Tu5D1hDWez-125">
          <mxGeometry x="14" y="930" width="120" height="60" as="geometry" />
        </mxCell>
        <mxCell id="smbsbleAU1Tu5D1hDWez-165" value="" style="edgeStyle=orthogonalEdgeStyle;rounded=0;orthogonalLoop=1;jettySize=auto;html=1;strokeWidth=5;strokeColor=#003366;exitX=0.5;exitY=1;exitDx=0;exitDy=0;entryX=0.5;entryY=0;entryDx=0;entryDy=0;" edge="1" parent="smbsbleAU1Tu5D1hDWez-125" source="smbsbleAU1Tu5D1hDWez-160" target="smbsbleAU1Tu5D1hDWez-162">
          <mxGeometry relative="1" as="geometry">
            <mxPoint x="406" y="1170" as="sourcePoint" />
            <mxPoint x="80" y="1430" as="targetPoint" />
          </mxGeometry>
        </mxCell>
        <mxCell id="smbsbleAU1Tu5D1hDWez-162" value="Domain" style="rounded=1;whiteSpace=wrap;html=1;shadow=1;comic=0;labelBackgroundColor=none;strokeWidth=2;fontFamily=Verdana;fontSize=12;align=center;fillColor=#0050ef;strokeColor=#001DBC;fontColor=#ffffff;" vertex="1" parent="smbsbleAU1Tu5D1hDWez-125">
          <mxGeometry x="14" y="1380" width="120" height="60" as="geometry" />
        </mxCell>
        <mxCell id="smbsbleAU1Tu5D1hDWez-170" value="" style="edgeStyle=orthogonalEdgeStyle;rounded=0;orthogonalLoop=1;jettySize=auto;html=1;strokeWidth=5;strokeColor=#003366;exitX=0.5;exitY=1;exitDx=0;exitDy=0;entryX=0.5;entryY=0;entryDx=0;entryDy=0;" edge="1" parent="smbsbleAU1Tu5D1hDWez-125" source="smbsbleAU1Tu5D1hDWez-162" target="smbsbleAU1Tu5D1hDWez-166">
          <mxGeometry relative="1" as="geometry">
            <mxPoint x="110" y="1229.9999999999998" as="sourcePoint" />
            <mxPoint x="50" y="1590" as="targetPoint" />
          </mxGeometry>
        </mxCell>
        <mxCell id="smbsbleAU1Tu5D1hDWez-166" value="Hosting" style="rounded=1;whiteSpace=wrap;html=1;shadow=1;comic=0;labelBackgroundColor=none;strokeWidth=2;fontFamily=Verdana;fontSize=12;align=center;fillColor=#0050ef;strokeColor=#001DBC;fontColor=#ffffff;" vertex="1" parent="smbsbleAU1Tu5D1hDWez-125">
          <mxGeometry x="14" y="1560" width="120" height="60" as="geometry" />
        </mxCell>
        <mxCell id="smbsbleAU1Tu5D1hDWez-172" value="" style="endArrow=none;html=1;exitX=1;exitY=1;exitDx=0;exitDy=0;entryX=0;entryY=0.5;entryDx=0;entryDy=0;" edge="1" parent="smbsbleAU1Tu5D1hDWez-125" source="smbsbleAU1Tu5D1hDWez-166" target="smbsbleAU1Tu5D1hDWez-168">
          <mxGeometry width="50" height="50" relative="1" as="geometry">
            <mxPoint x="144" y="1600" as="sourcePoint" />
            <mxPoint x="200" y="1600" as="targetPoint" />
          </mxGeometry>
        </mxCell>
        <mxCell id="smbsbleAU1Tu5D1hDWez-173" value="" style="endArrow=none;html=1;exitX=0.5;exitY=1;exitDx=0;exitDy=0;entryX=0;entryY=0.5;entryDx=0;entryDy=0;" edge="1" parent="smbsbleAU1Tu5D1hDWez-125" source="smbsbleAU1Tu5D1hDWez-166" target="smbsbleAU1Tu5D1hDWez-169">
          <mxGeometry width="50" height="50" relative="1" as="geometry">
            <mxPoint x="144" y="1629.9999999999995" as="sourcePoint" />
            <mxPoint x="199" y="1660" as="targetPoint" />
          </mxGeometry>
        </mxCell>
        <mxCell id="smbsbleAU1Tu5D1hDWez-180" value="Cybersecurity &amp;amp; Crime" style="whiteSpace=wrap;html=1;rounded=1;shadow=1;comic=0;labelBackgroundColor=none;strokeWidth=2;fontFamily=Verdana;fontSize=12;align=center;arcSize=50;" vertex="1" parent="smbsbleAU1Tu5D1hDWez-125">
          <mxGeometry x="189" y="1827" width="180" height="40" as="geometry" />
        </mxCell>
        <mxCell id="smbsbleAU1Tu5D1hDWez-179" value="Encryption &amp;amp; Public Keys" style="whiteSpace=wrap;html=1;rounded=1;shadow=1;comic=0;labelBackgroundColor=none;strokeWidth=2;fontFamily=Verdana;fontSize=12;align=center;arcSize=50;fillColor=#dae8fc;strokeColor=#6c8ebf;" vertex="1" parent="smbsbleAU1Tu5D1hDWez-125">
          <mxGeometry x="189" y="1770" width="180" height="40" as="geometry" />
        </mxCell>
        <mxCell id="smbsbleAU1Tu5D1hDWez-168" value="Cara Kerja Hosting" style="whiteSpace=wrap;html=1;rounded=1;shadow=1;comic=0;labelBackgroundColor=none;strokeWidth=2;fontFamily=Verdana;fontSize=12;align=center;arcSize=50;fillColor=#dae8fc;strokeColor=#6c8ebf;" vertex="1" parent="smbsbleAU1Tu5D1hDWez-125">
          <mxGeometry x="189" y="1627" width="180" height="40" as="geometry" />
        </mxCell>
        <mxCell id="smbsbleAU1Tu5D1hDWez-169" value="Tipe Hosting dan Cara Mendapatkannya" style="whiteSpace=wrap;html=1;rounded=1;shadow=1;comic=0;labelBackgroundColor=none;strokeWidth=2;fontFamily=Verdana;fontSize=12;align=center;arcSize=50;" vertex="1" parent="smbsbleAU1Tu5D1hDWez-125">
          <mxGeometry x="189" y="1684" width="180" height="40" as="geometry" />
        </mxCell>
        <mxCell id="smbsbleAU1Tu5D1hDWez-182" value="" style="endArrow=none;html=1;exitX=1;exitY=0.5;exitDx=0;exitDy=0;entryX=0;entryY=0.5;entryDx=0;entryDy=0;" edge="1" parent="smbsbleAU1Tu5D1hDWez-125" source="smbsbleAU1Tu5D1hDWez-178" target="smbsbleAU1Tu5D1hDWez-179">
          <mxGeometry width="50" height="50" relative="1" as="geometry">
            <mxPoint x="84" y="1630" as="sourcePoint" />
            <mxPoint x="199" y="1714" as="targetPoint" />
          </mxGeometry>
        </mxCell>
        <mxCell id="smbsbleAU1Tu5D1hDWez-183" value="" style="endArrow=none;html=1;exitX=1;exitY=1;exitDx=0;exitDy=0;entryX=0;entryY=0.5;entryDx=0;entryDy=0;" edge="1" parent="smbsbleAU1Tu5D1hDWez-125" source="smbsbleAU1Tu5D1hDWez-178" target="smbsbleAU1Tu5D1hDWez-180">
          <mxGeometry width="50" height="50" relative="1" as="geometry">
            <mxPoint x="144" y="1800" as="sourcePoint" />
            <mxPoint x="199" y="1800" as="targetPoint" />
          </mxGeometry>
        </mxCell>
        <mxCell id="smbsbleAU1Tu5D1hDWez-236" value="" style="edgeStyle=orthogonalEdgeStyle;rounded=0;orthogonalLoop=1;jettySize=auto;html=1;strokeWidth=5;strokeColor=#003366;entryX=0.5;entryY=0;entryDx=0;entryDy=0;" edge="1" parent="smbsbleAU1Tu5D1hDWez-125" target="smbsbleAU1Tu5D1hDWez-178">
          <mxGeometry relative="1" as="geometry">
            <mxPoint x="74" y="1621" as="sourcePoint" />
            <mxPoint x="84" y="1570" as="targetPoint" />
          </mxGeometry>
        </mxCell>
        <mxCell id="smbsbleAU1Tu5D1hDWez-904" value="Penggunaan Dasar dari GIT" style="whiteSpace=wrap;html=1;rounded=1;shadow=1;comic=0;labelBackgroundColor=none;strokeWidth=2;fontFamily=Verdana;fontSize=12;align=center;arcSize=50;fillColor=#dae8fc;strokeColor=#6c8ebf;" vertex="1" parent="smbsbleAU1Tu5D1hDWez-125">
          <mxGeometry x="189" y="2800" width="180" height="40" as="geometry" />
        </mxCell>
        <mxCell id="smbsbleAU1Tu5D1hDWez-905" value="" style="endArrow=none;html=1;exitX=0;exitY=0.5;exitDx=0;exitDy=0;entryX=1;entryY=1;entryDx=0;entryDy=0;" edge="1" parent="smbsbleAU1Tu5D1hDWez-125" source="smbsbleAU1Tu5D1hDWez-904" target="smbsbleAU1Tu5D1hDWez-902">
          <mxGeometry width="50" height="50" relative="1" as="geometry">
            <mxPoint x="860" y="2690" as="sourcePoint" />
            <mxPoint x="735" y="2560" as="targetPoint" />
          </mxGeometry>
        </mxCell>
        <mxCell id="smbsbleAU1Tu5D1hDWez-906" value="Repo Hosting Service&lt;br&gt;GITHUB" style="whiteSpace=wrap;html=1;rounded=1;shadow=1;comic=0;labelBackgroundColor=none;strokeWidth=2;fontFamily=Verdana;fontSize=12;align=center;arcSize=50;fillColor=#dae8fc;strokeColor=#6c8ebf;" vertex="1" parent="smbsbleAU1Tu5D1hDWez-125">
          <mxGeometry x="189" y="2850" width="180" height="40" as="geometry" />
        </mxCell>
        <mxCell id="smbsbleAU1Tu5D1hDWez-907" value="" style="endArrow=none;html=1;exitX=0;exitY=0.5;exitDx=0;exitDy=0;entryX=0.75;entryY=1;entryDx=0;entryDy=0;" edge="1" parent="smbsbleAU1Tu5D1hDWez-125" source="smbsbleAU1Tu5D1hDWez-906" target="smbsbleAU1Tu5D1hDWez-902">
          <mxGeometry width="50" height="50" relative="1" as="geometry">
            <mxPoint x="199" y="2830" as="sourcePoint" />
            <mxPoint x="144" y="2810" as="targetPoint" />
          </mxGeometry>
        </mxCell>
        <mxCell id="smbsbleAU1Tu5D1hDWez-126" value="FRONT-END" style="swimlane;html=1;startSize=20;" vertex="1" parent="smbsbleAU1Tu5D1hDWez-124">
          <mxGeometry x="390" y="20" width="650" height="7120" as="geometry" />
        </mxCell>
        <mxCell id="smbsbleAU1Tu5D1hDWez-272" value="Mendalami CSS" style="rounded=1;whiteSpace=wrap;html=1;shadow=1;comic=0;labelBackgroundColor=none;strokeWidth=2;fontFamily=Verdana;fontSize=12;align=center;fillColor=#0050ef;strokeColor=#001DBC;fontColor=#ffffff;" vertex="1" parent="smbsbleAU1Tu5D1hDWez-126">
          <mxGeometry x="10" y="2110" width="120" height="60" as="geometry" />
        </mxCell>
        <mxCell id="smbsbleAU1Tu5D1hDWez-885" value="SVG" style="rounded=1;whiteSpace=wrap;html=1;shadow=1;comic=0;labelBackgroundColor=none;strokeWidth=2;fontFamily=Verdana;fontSize=12;align=center;" vertex="1" parent="smbsbleAU1Tu5D1hDWez-126">
          <mxGeometry x="10" y="4790" width="120" height="60" as="geometry" />
        </mxCell>
        <mxCell id="smbsbleAU1Tu5D1hDWez-404" value="Mendalami JavaScript" style="rounded=1;whiteSpace=wrap;html=1;shadow=1;comic=0;labelBackgroundColor=none;strokeWidth=2;fontFamily=Verdana;fontSize=12;align=center;fillColor=#0050ef;strokeColor=#001DBC;fontColor=#ffffff;" vertex="1" parent="smbsbleAU1Tu5D1hDWez-126">
          <mxGeometry x="10" y="2920" width="120" height="60" as="geometry" />
        </mxCell>
        <mxCell id="smbsbleAU1Tu5D1hDWez-409" value="" style="endArrow=none;html=1;exitX=0;exitY=0.5;exitDx=0;exitDy=0;entryX=1;entryY=0.5;entryDx=0;entryDy=0;" edge="1" parent="smbsbleAU1Tu5D1hDWez-126" source="smbsbleAU1Tu5D1hDWez-408" target="smbsbleAU1Tu5D1hDWez-407">
          <mxGeometry width="50" height="50" relative="1" as="geometry">
            <mxPoint x="470" y="3010" as="sourcePoint" />
            <mxPoint x="345" y="2880" as="targetPoint" />
          </mxGeometry>
        </mxCell>
        <mxCell id="smbsbleAU1Tu5D1hDWez-412" value="" style="endArrow=none;html=1;exitX=0;exitY=0.5;exitDx=0;exitDy=0;entryX=0.928;entryY=0.957;entryDx=0;entryDy=0;entryPerimeter=0;" edge="1" parent="smbsbleAU1Tu5D1hDWez-126" source="smbsbleAU1Tu5D1hDWez-410" target="smbsbleAU1Tu5D1hDWez-407">
          <mxGeometry width="50" height="50" relative="1" as="geometry">
            <mxPoint x="470" y="3160" as="sourcePoint" />
            <mxPoint x="390" y="3160" as="targetPoint" />
          </mxGeometry>
        </mxCell>
        <mxCell id="smbsbleAU1Tu5D1hDWez-413" value="" style="endArrow=none;html=1;exitX=0;exitY=0.5;exitDx=0;exitDy=0;entryX=0.634;entryY=0.993;entryDx=0;entryDy=0;entryPerimeter=0;" edge="1" parent="smbsbleAU1Tu5D1hDWez-126" source="smbsbleAU1Tu5D1hDWez-411" target="smbsbleAU1Tu5D1hDWez-407">
          <mxGeometry width="50" height="50" relative="1" as="geometry">
            <mxPoint x="470" y="3210" as="sourcePoint" />
            <mxPoint x="377.03999999999996" y="3178.2799999999997" as="targetPoint" />
          </mxGeometry>
        </mxCell>
        <mxCell id="smbsbleAU1Tu5D1hDWez-886" value="Java Script" style="rounded=1;whiteSpace=wrap;html=1;shadow=1;comic=0;labelBackgroundColor=none;strokeWidth=2;fontFamily=Verdana;fontSize=12;align=center;fillColor=#0050ef;strokeColor=#001DBC;fontColor=#ffffff;" vertex="1" parent="smbsbleAU1Tu5D1hDWez-126">
          <mxGeometry x="10" y="4890" width="120" height="60" as="geometry" />
        </mxCell>
        <mxCell id="smbsbleAU1Tu5D1hDWez-541" value="" style="endArrow=none;html=1;exitX=0;exitY=0.5;exitDx=0;exitDy=0;entryX=1;entryY=0.5;entryDx=0;entryDy=0;" edge="1" parent="smbsbleAU1Tu5D1hDWez-126" source="smbsbleAU1Tu5D1hDWez-415" target="smbsbleAU1Tu5D1hDWez-404">
          <mxGeometry width="50" height="50" relative="1" as="geometry">
            <mxPoint x="470" y="2860" as="sourcePoint" />
            <mxPoint x="345" y="2730" as="targetPoint" />
          </mxGeometry>
        </mxCell>
        <mxCell id="smbsbleAU1Tu5D1hDWez-556" value="" style="endArrow=none;html=1;exitX=0;exitY=0.25;exitDx=0;exitDy=0;entryX=1;entryY=0.5;entryDx=0;entryDy=0;" edge="1" parent="smbsbleAU1Tu5D1hDWez-126" source="smbsbleAU1Tu5D1hDWez-417" target="smbsbleAU1Tu5D1hDWez-404">
          <mxGeometry width="50" height="50" relative="1" as="geometry">
            <mxPoint x="210" y="2960" as="sourcePoint" />
            <mxPoint x="140" y="2960" as="targetPoint" />
          </mxGeometry>
        </mxCell>
        <mxCell id="smbsbleAU1Tu5D1hDWez-558" value="" style="endArrow=none;html=1;exitX=0;exitY=0.5;exitDx=0;exitDy=0;entryX=1;entryY=0.75;entryDx=0;entryDy=0;" edge="1" parent="smbsbleAU1Tu5D1hDWez-126" source="smbsbleAU1Tu5D1hDWez-540" target="smbsbleAU1Tu5D1hDWez-404">
          <mxGeometry width="50" height="50" relative="1" as="geometry">
            <mxPoint x="220" y="3010" as="sourcePoint" />
            <mxPoint x="150" y="2970" as="targetPoint" />
          </mxGeometry>
        </mxCell>
        <mxCell id="smbsbleAU1Tu5D1hDWez-559" value="" style="endArrow=none;html=1;exitX=0;exitY=0.5;exitDx=0;exitDy=0;entryX=1;entryY=0.75;entryDx=0;entryDy=0;" edge="1" parent="smbsbleAU1Tu5D1hDWez-126" source="smbsbleAU1Tu5D1hDWez-407" target="smbsbleAU1Tu5D1hDWez-404">
          <mxGeometry width="50" height="50" relative="1" as="geometry">
            <mxPoint x="230" y="3020" as="sourcePoint" />
            <mxPoint x="160" y="2980" as="targetPoint" />
          </mxGeometry>
        </mxCell>
        <mxCell id="smbsbleAU1Tu5D1hDWez-560" value="" style="endArrow=none;html=1;exitX=0;exitY=0.5;exitDx=0;exitDy=0;entryX=0.927;entryY=0.995;entryDx=0;entryDy=0;entryPerimeter=0;" edge="1" parent="smbsbleAU1Tu5D1hDWez-126" source="smbsbleAU1Tu5D1hDWez-542" target="smbsbleAU1Tu5D1hDWez-404">
          <mxGeometry width="50" height="50" relative="1" as="geometry">
            <mxPoint x="240" y="3030" as="sourcePoint" />
            <mxPoint x="170" y="2990" as="targetPoint" />
          </mxGeometry>
        </mxCell>
        <mxCell id="smbsbleAU1Tu5D1hDWez-561" value="" style="endArrow=none;html=1;exitX=0;exitY=0.5;exitDx=0;exitDy=0;entryX=0.892;entryY=0.995;entryDx=0;entryDy=0;entryPerimeter=0;" edge="1" parent="smbsbleAU1Tu5D1hDWez-126" source="smbsbleAU1Tu5D1hDWez-549" target="smbsbleAU1Tu5D1hDWez-404">
          <mxGeometry width="50" height="50" relative="1" as="geometry">
            <mxPoint x="250" y="3040" as="sourcePoint" />
            <mxPoint x="180" y="3000" as="targetPoint" />
          </mxGeometry>
        </mxCell>
        <mxCell id="smbsbleAU1Tu5D1hDWez-562" value="" style="endArrow=none;html=1;exitX=0;exitY=0.75;exitDx=0;exitDy=0;entryX=0.75;entryY=1;entryDx=0;entryDy=0;" edge="1" parent="smbsbleAU1Tu5D1hDWez-126" source="smbsbleAU1Tu5D1hDWez-545" target="smbsbleAU1Tu5D1hDWez-404">
          <mxGeometry width="50" height="50" relative="1" as="geometry">
            <mxPoint x="210" y="3450" as="sourcePoint" />
            <mxPoint x="127.03999999999996" y="2989.7" as="targetPoint" />
          </mxGeometry>
        </mxCell>
        <mxCell id="smbsbleAU1Tu5D1hDWez-656" value="" style="endArrow=none;html=1;exitX=0;exitY=0.5;exitDx=0;exitDy=0;entryX=0.75;entryY=1;entryDx=0;entryDy=0;" edge="1" parent="smbsbleAU1Tu5D1hDWez-126" source="smbsbleAU1Tu5D1hDWez-563" target="smbsbleAU1Tu5D1hDWez-404">
          <mxGeometry width="50" height="50" relative="1" as="geometry">
            <mxPoint x="210" y="3780" as="sourcePoint" />
            <mxPoint x="110" y="2990" as="targetPoint" />
          </mxGeometry>
        </mxCell>
        <mxCell id="smbsbleAU1Tu5D1hDWez-657" value="" style="endArrow=none;html=1;exitX=0;exitY=0.5;exitDx=0;exitDy=0;entryX=0.5;entryY=1;entryDx=0;entryDy=0;" edge="1" parent="smbsbleAU1Tu5D1hDWez-126" source="smbsbleAU1Tu5D1hDWez-654" target="smbsbleAU1Tu5D1hDWez-404">
          <mxGeometry width="50" height="50" relative="1" as="geometry">
            <mxPoint x="210" y="3940" as="sourcePoint" />
            <mxPoint x="110" y="2990" as="targetPoint" />
          </mxGeometry>
        </mxCell>
        <mxCell id="smbsbleAU1Tu5D1hDWez-658" value="" style="endArrow=none;html=1;exitX=0;exitY=0.5;exitDx=0;exitDy=0;entryX=0.5;entryY=1;entryDx=0;entryDy=0;" edge="1" parent="smbsbleAU1Tu5D1hDWez-126" source="smbsbleAU1Tu5D1hDWez-406" target="smbsbleAU1Tu5D1hDWez-404">
          <mxGeometry width="50" height="50" relative="1" as="geometry">
            <mxPoint x="210" y="4160" as="sourcePoint" />
            <mxPoint x="80" y="2990" as="targetPoint" />
          </mxGeometry>
        </mxCell>
        <mxCell id="smbsbleAU1Tu5D1hDWez-848" value="" style="endArrow=none;html=1;exitX=0;exitY=0.5;exitDx=0;exitDy=0;entryX=1;entryY=0.5;entryDx=0;entryDy=0;" edge="1" parent="smbsbleAU1Tu5D1hDWez-126" source="smbsbleAU1Tu5D1hDWez-543" target="smbsbleAU1Tu5D1hDWez-542">
          <mxGeometry width="50" height="50" relative="1" as="geometry">
            <mxPoint x="470" y="3260" as="sourcePoint" />
            <mxPoint x="324.1199999999999" y="3179.7200000000003" as="targetPoint" />
          </mxGeometry>
        </mxCell>
        <mxCell id="smbsbleAU1Tu5D1hDWez-849" value="" style="endArrow=none;html=1;exitX=0;exitY=0.25;exitDx=0;exitDy=0;entryX=0.942;entryY=0.959;entryDx=0;entryDy=0;entryPerimeter=0;" edge="1" parent="smbsbleAU1Tu5D1hDWez-126" source="smbsbleAU1Tu5D1hDWez-544" target="smbsbleAU1Tu5D1hDWez-542">
          <mxGeometry width="50" height="50" relative="1" as="geometry">
            <mxPoint x="470" y="3330" as="sourcePoint" />
            <mxPoint x="390" y="3330" as="targetPoint" />
          </mxGeometry>
        </mxCell>
        <mxCell id="smbsbleAU1Tu5D1hDWez-850" value="" style="endArrow=none;html=1;exitX=0;exitY=0.5;exitDx=0;exitDy=0;entryX=1;entryY=0.5;entryDx=0;entryDy=0;" edge="1" parent="smbsbleAU1Tu5D1hDWez-126" source="smbsbleAU1Tu5D1hDWez-550" target="smbsbleAU1Tu5D1hDWez-549">
          <mxGeometry width="50" height="50" relative="1" as="geometry">
            <mxPoint x="480" y="3340" as="sourcePoint" />
            <mxPoint x="400" y="3340" as="targetPoint" />
          </mxGeometry>
        </mxCell>
        <mxCell id="smbsbleAU1Tu5D1hDWez-851" value="" style="endArrow=none;html=1;exitX=0;exitY=0.5;exitDx=0;exitDy=0;entryX=1;entryY=0.75;entryDx=0;entryDy=0;" edge="1" parent="smbsbleAU1Tu5D1hDWez-126" source="smbsbleAU1Tu5D1hDWez-551" target="smbsbleAU1Tu5D1hDWez-549">
          <mxGeometry width="50" height="50" relative="1" as="geometry">
            <mxPoint x="470" y="3450" as="sourcePoint" />
            <mxPoint x="390" y="3450" as="targetPoint" />
          </mxGeometry>
        </mxCell>
        <mxCell id="smbsbleAU1Tu5D1hDWez-852" value="" style="endArrow=none;html=1;exitX=0;exitY=0.5;exitDx=0;exitDy=0;entryX=0.929;entryY=0.988;entryDx=0;entryDy=0;entryPerimeter=0;" edge="1" parent="smbsbleAU1Tu5D1hDWez-126" source="smbsbleAU1Tu5D1hDWez-552" target="smbsbleAU1Tu5D1hDWez-549">
          <mxGeometry width="50" height="50" relative="1" as="geometry">
            <mxPoint x="470" y="3500" as="sourcePoint" />
            <mxPoint x="390" y="3460" as="targetPoint" />
          </mxGeometry>
        </mxCell>
        <mxCell id="smbsbleAU1Tu5D1hDWez-853" value="" style="endArrow=none;html=1;exitX=0;exitY=0.5;exitDx=0;exitDy=0;entryX=0.805;entryY=0.988;entryDx=0;entryDy=0;entryPerimeter=0;" edge="1" parent="smbsbleAU1Tu5D1hDWez-126" source="smbsbleAU1Tu5D1hDWez-553" target="smbsbleAU1Tu5D1hDWez-549">
          <mxGeometry width="50" height="50" relative="1" as="geometry">
            <mxPoint x="480" y="3510" as="sourcePoint" />
            <mxPoint x="400" y="3470" as="targetPoint" />
          </mxGeometry>
        </mxCell>
        <mxCell id="smbsbleAU1Tu5D1hDWez-854" value="" style="endArrow=none;html=1;exitX=0;exitY=0.5;exitDx=0;exitDy=0;entryX=0.674;entryY=0.988;entryDx=0;entryDy=0;entryPerimeter=0;" edge="1" parent="smbsbleAU1Tu5D1hDWez-126" source="smbsbleAU1Tu5D1hDWez-554" target="smbsbleAU1Tu5D1hDWez-549">
          <mxGeometry width="50" height="50" relative="1" as="geometry">
            <mxPoint x="490" y="3520" as="sourcePoint" />
            <mxPoint x="410" y="3480" as="targetPoint" />
          </mxGeometry>
        </mxCell>
        <mxCell id="smbsbleAU1Tu5D1hDWez-855" value="" style="endArrow=none;html=1;exitX=0;exitY=0.5;exitDx=0;exitDy=0;entryX=0.55;entryY=1.047;entryDx=0;entryDy=0;entryPerimeter=0;" edge="1" parent="smbsbleAU1Tu5D1hDWez-126" source="smbsbleAU1Tu5D1hDWez-555" target="smbsbleAU1Tu5D1hDWez-549">
          <mxGeometry width="50" height="50" relative="1" as="geometry">
            <mxPoint x="500" y="3530" as="sourcePoint" />
            <mxPoint x="420" y="3490" as="targetPoint" />
          </mxGeometry>
        </mxCell>
        <mxCell id="smbsbleAU1Tu5D1hDWez-856" value="" style="endArrow=none;html=1;exitX=0;exitY=0.5;exitDx=0;exitDy=0;entryX=1;entryY=0.5;entryDx=0;entryDy=0;" edge="1" parent="smbsbleAU1Tu5D1hDWez-126" source="smbsbleAU1Tu5D1hDWez-546" target="smbsbleAU1Tu5D1hDWez-545">
          <mxGeometry width="50" height="50" relative="1" as="geometry">
            <mxPoint x="470" y="3700" as="sourcePoint" />
            <mxPoint x="309" y="3471.88" as="targetPoint" />
          </mxGeometry>
        </mxCell>
        <mxCell id="smbsbleAU1Tu5D1hDWez-857" value="" style="endArrow=none;html=1;exitX=0;exitY=0.5;exitDx=0;exitDy=0;entryX=0.923;entryY=0.959;entryDx=0;entryDy=0;entryPerimeter=0;" edge="1" parent="smbsbleAU1Tu5D1hDWez-126" source="smbsbleAU1Tu5D1hDWez-547" target="smbsbleAU1Tu5D1hDWez-545">
          <mxGeometry width="50" height="50" relative="1" as="geometry">
            <mxPoint x="470" y="3770" as="sourcePoint" />
            <mxPoint x="390" y="3770" as="targetPoint" />
          </mxGeometry>
        </mxCell>
        <mxCell id="smbsbleAU1Tu5D1hDWez-858" value="" style="endArrow=none;html=1;exitX=0;exitY=0.5;exitDx=0;exitDy=0;entryX=0.75;entryY=1;entryDx=0;entryDy=0;" edge="1" parent="smbsbleAU1Tu5D1hDWez-126" source="smbsbleAU1Tu5D1hDWez-548" target="smbsbleAU1Tu5D1hDWez-545">
          <mxGeometry width="50" height="50" relative="1" as="geometry">
            <mxPoint x="480" y="3780" as="sourcePoint" />
            <mxPoint x="400" y="3780" as="targetPoint" />
          </mxGeometry>
        </mxCell>
        <mxCell id="smbsbleAU1Tu5D1hDWez-859" value="" style="endArrow=none;html=1;exitX=0;exitY=0.5;exitDx=0;exitDy=0;entryX=1;entryY=0.5;entryDx=0;entryDy=0;" edge="1" parent="smbsbleAU1Tu5D1hDWez-126" source="smbsbleAU1Tu5D1hDWez-564" target="smbsbleAU1Tu5D1hDWez-563">
          <mxGeometry width="50" height="50" relative="1" as="geometry">
            <mxPoint x="490" y="3790" as="sourcePoint" />
            <mxPoint x="410" y="3790" as="targetPoint" />
          </mxGeometry>
        </mxCell>
        <mxCell id="smbsbleAU1Tu5D1hDWez-860" value="" style="endArrow=none;html=1;exitX=0;exitY=0.5;exitDx=0;exitDy=0;entryX=0.949;entryY=0.974;entryDx=0;entryDy=0;entryPerimeter=0;" edge="1" parent="smbsbleAU1Tu5D1hDWez-126" source="smbsbleAU1Tu5D1hDWez-565" target="smbsbleAU1Tu5D1hDWez-563">
          <mxGeometry width="50" height="50" relative="1" as="geometry">
            <mxPoint x="470" y="3940" as="sourcePoint" />
            <mxPoint x="390" y="3940" as="targetPoint" />
          </mxGeometry>
        </mxCell>
        <mxCell id="smbsbleAU1Tu5D1hDWez-861" value="" style="endArrow=none;html=1;exitX=0;exitY=0.5;exitDx=0;exitDy=0;entryX=0.811;entryY=1.003;entryDx=0;entryDy=0;entryPerimeter=0;" edge="1" parent="smbsbleAU1Tu5D1hDWez-126" source="smbsbleAU1Tu5D1hDWez-566" target="smbsbleAU1Tu5D1hDWez-563">
          <mxGeometry width="50" height="50" relative="1" as="geometry">
            <mxPoint x="470" y="3990" as="sourcePoint" />
            <mxPoint x="350" y="3980" as="targetPoint" />
          </mxGeometry>
        </mxCell>
        <mxCell id="smbsbleAU1Tu5D1hDWez-862" value="" style="endArrow=none;html=1;exitX=0;exitY=0.5;exitDx=0;exitDy=0;entryX=0.687;entryY=1.003;entryDx=0;entryDy=0;entryPerimeter=0;" edge="1" parent="smbsbleAU1Tu5D1hDWez-126" source="smbsbleAU1Tu5D1hDWez-653" target="smbsbleAU1Tu5D1hDWez-563">
          <mxGeometry width="50" height="50" relative="1" as="geometry">
            <mxPoint x="480" y="4000" as="sourcePoint" />
            <mxPoint x="390.82000000000016" y="3968.96" as="targetPoint" />
          </mxGeometry>
        </mxCell>
        <mxCell id="smbsbleAU1Tu5D1hDWez-863" value="" style="endArrow=none;html=1;entryX=1;entryY=0.5;entryDx=0;entryDy=0;exitX=0;exitY=0.5;exitDx=0;exitDy=0;" edge="1" parent="smbsbleAU1Tu5D1hDWez-126" source="smbsbleAU1Tu5D1hDWez-655" target="smbsbleAU1Tu5D1hDWez-654">
          <mxGeometry width="50" height="50" relative="1" as="geometry">
            <mxPoint x="370" y="4060" as="sourcePoint" />
            <mxPoint x="400.82000000000016" y="3978.96" as="targetPoint" />
          </mxGeometry>
        </mxCell>
        <mxCell id="smbsbleAU1Tu5D1hDWez-889" value="" style="endArrow=none;html=1;exitX=0;exitY=0.5;exitDx=0;exitDy=0;entryX=1;entryY=0.5;entryDx=0;entryDy=0;" edge="1" parent="smbsbleAU1Tu5D1hDWez-126" source="smbsbleAU1Tu5D1hDWez-864" target="smbsbleAU1Tu5D1hDWez-752">
          <mxGeometry width="50" height="50" relative="1" as="geometry">
            <mxPoint x="210" y="4300" as="sourcePoint" />
            <mxPoint x="140" y="4300" as="targetPoint" />
          </mxGeometry>
        </mxCell>
        <mxCell id="smbsbleAU1Tu5D1hDWez-890" value="" style="endArrow=none;html=1;exitX=0;exitY=0.5;exitDx=0;exitDy=0;entryX=1;entryY=0.75;entryDx=0;entryDy=0;" edge="1" parent="smbsbleAU1Tu5D1hDWez-126" source="smbsbleAU1Tu5D1hDWez-865" target="smbsbleAU1Tu5D1hDWez-752">
          <mxGeometry width="50" height="50" relative="1" as="geometry">
            <mxPoint x="470" y="4300" as="sourcePoint" />
            <mxPoint x="390" y="4300" as="targetPoint" />
          </mxGeometry>
        </mxCell>
        <mxCell id="smbsbleAU1Tu5D1hDWez-891" value="" style="endArrow=none;html=1;exitX=0;exitY=0.5;exitDx=0;exitDy=0;entryX=0.936;entryY=0.944;entryDx=0;entryDy=0;entryPerimeter=0;" edge="1" parent="smbsbleAU1Tu5D1hDWez-126" source="smbsbleAU1Tu5D1hDWez-866" target="smbsbleAU1Tu5D1hDWez-752">
          <mxGeometry width="50" height="50" relative="1" as="geometry">
            <mxPoint x="480" y="4310" as="sourcePoint" />
            <mxPoint x="400" y="4310" as="targetPoint" />
          </mxGeometry>
        </mxCell>
        <mxCell id="smbsbleAU1Tu5D1hDWez-892" value="" style="endArrow=none;html=1;exitX=0;exitY=0.5;exitDx=0;exitDy=0;entryX=0.75;entryY=1;entryDx=0;entryDy=0;" edge="1" parent="smbsbleAU1Tu5D1hDWez-126" source="smbsbleAU1Tu5D1hDWez-867" target="smbsbleAU1Tu5D1hDWez-752">
          <mxGeometry width="50" height="50" relative="1" as="geometry">
            <mxPoint x="490" y="4320" as="sourcePoint" />
            <mxPoint x="410" y="4320" as="targetPoint" />
          </mxGeometry>
        </mxCell>
        <mxCell id="smbsbleAU1Tu5D1hDWez-893" value="" style="endArrow=none;html=1;exitX=0;exitY=0.5;exitDx=0;exitDy=0;entryX=0.563;entryY=1.062;entryDx=0;entryDy=0;entryPerimeter=0;" edge="1" parent="smbsbleAU1Tu5D1hDWez-126" source="smbsbleAU1Tu5D1hDWez-868" target="smbsbleAU1Tu5D1hDWez-752">
          <mxGeometry width="50" height="50" relative="1" as="geometry">
            <mxPoint x="500" y="4330" as="sourcePoint" />
            <mxPoint x="420" y="4330" as="targetPoint" />
          </mxGeometry>
        </mxCell>
        <mxCell id="smbsbleAU1Tu5D1hDWez-898" value="" style="endArrow=none;html=1;entryX=1;entryY=0.5;entryDx=0;entryDy=0;exitX=0;exitY=0.5;exitDx=0;exitDy=0;" edge="1" parent="smbsbleAU1Tu5D1hDWez-126" source="smbsbleAU1Tu5D1hDWez-879" target="smbsbleAU1Tu5D1hDWez-885">
          <mxGeometry width="50" height="50" relative="1" as="geometry">
            <mxPoint x="210" y="4560" as="sourcePoint" />
            <mxPoint x="110" y="4330" as="targetPoint" />
          </mxGeometry>
        </mxCell>
        <mxCell id="smbsbleAU1Tu5D1hDWez-899" value="" style="endArrow=none;html=1;entryX=1;entryY=0.5;entryDx=0;entryDy=0;exitX=0;exitY=0.5;exitDx=0;exitDy=0;" edge="1" parent="smbsbleAU1Tu5D1hDWez-126" source="smbsbleAU1Tu5D1hDWez-882" target="smbsbleAU1Tu5D1hDWez-886">
          <mxGeometry width="50" height="50" relative="1" as="geometry">
            <mxPoint x="210" y="4830" as="sourcePoint" />
            <mxPoint x="140" y="4830" as="targetPoint" />
          </mxGeometry>
        </mxCell>
        <mxCell id="smbsbleAU1Tu5D1hDWez-900" value="" style="endArrow=none;html=1;entryX=1;entryY=1;entryDx=0;entryDy=0;exitX=0;exitY=0.5;exitDx=0;exitDy=0;" edge="1" parent="smbsbleAU1Tu5D1hDWez-126" source="smbsbleAU1Tu5D1hDWez-883" target="smbsbleAU1Tu5D1hDWez-886">
          <mxGeometry width="50" height="50" relative="1" as="geometry">
            <mxPoint x="220" y="4840" as="sourcePoint" />
            <mxPoint x="150" y="4840" as="targetPoint" />
          </mxGeometry>
        </mxCell>
        <mxCell id="smbsbleAU1Tu5D1hDWez-901" value="" style="endArrow=none;html=1;entryX=0.75;entryY=1;entryDx=0;entryDy=0;exitX=0;exitY=0.5;exitDx=0;exitDy=0;" edge="1" parent="smbsbleAU1Tu5D1hDWez-126" source="smbsbleAU1Tu5D1hDWez-884" target="smbsbleAU1Tu5D1hDWez-886">
          <mxGeometry width="50" height="50" relative="1" as="geometry">
            <mxPoint x="210" y="4980" as="sourcePoint" />
            <mxPoint x="140" y="4960" as="targetPoint" />
          </mxGeometry>
        </mxCell>
        <mxCell id="smbsbleAU1Tu5D1hDWez-882" value="Design Patterns" style="whiteSpace=wrap;html=1;rounded=1;shadow=1;comic=0;labelBackgroundColor=none;strokeWidth=2;fontFamily=Verdana;fontSize=12;align=center;arcSize=50;" vertex="1" parent="smbsbleAU1Tu5D1hDWez-126">
          <mxGeometry x="200" y="4900" width="180" height="40" as="geometry" />
        </mxCell>
        <mxCell id="smbsbleAU1Tu5D1hDWez-883" value="Regex" style="whiteSpace=wrap;html=1;rounded=1;shadow=1;comic=0;labelBackgroundColor=none;strokeWidth=2;fontFamily=Verdana;fontSize=12;align=center;arcSize=50;" vertex="1" parent="smbsbleAU1Tu5D1hDWez-126">
          <mxGeometry x="200" y="4950" width="180" height="40" as="geometry" />
        </mxCell>
        <mxCell id="smbsbleAU1Tu5D1hDWez-884" value="GOF Design Patterns" style="whiteSpace=wrap;html=1;rounded=1;shadow=1;comic=0;labelBackgroundColor=none;strokeWidth=2;fontFamily=Verdana;fontSize=12;align=center;arcSize=50;" vertex="1" parent="smbsbleAU1Tu5D1hDWez-126">
          <mxGeometry x="200" y="5000" width="180" height="40" as="geometry" />
        </mxCell>
        <mxCell id="smbsbleAU1Tu5D1hDWez-879" value="D3" style="whiteSpace=wrap;html=1;rounded=1;shadow=1;comic=0;labelBackgroundColor=none;strokeWidth=2;fontFamily=Verdana;fontSize=12;align=center;arcSize=50;" vertex="1" parent="smbsbleAU1Tu5D1hDWez-126">
          <mxGeometry x="200" y="4800" width="180" height="40" as="geometry" />
        </mxCell>
        <mxCell id="smbsbleAU1Tu5D1hDWez-406" value="Belajar DOM Manipulation" style="whiteSpace=wrap;html=1;rounded=1;shadow=1;comic=0;labelBackgroundColor=none;strokeWidth=2;fontFamily=Verdana;fontSize=12;align=center;arcSize=50;fillColor=#dae8fc;strokeColor=#6c8ebf;" vertex="1" parent="smbsbleAU1Tu5D1hDWez-126">
          <mxGeometry x="200" y="4190" width="180" height="40" as="geometry" />
        </mxCell>
        <mxCell id="smbsbleAU1Tu5D1hDWez-549" value="Frameworks" style="whiteSpace=wrap;html=1;rounded=1;shadow=1;comic=0;labelBackgroundColor=none;strokeWidth=2;fontFamily=Verdana;fontSize=12;align=center;arcSize=50;fillColor=#dae8fc;strokeColor=#6c8ebf;" vertex="1" parent="smbsbleAU1Tu5D1hDWez-126">
          <mxGeometry x="200" y="3420" width="180" height="40" as="geometry" />
        </mxCell>
        <mxCell id="smbsbleAU1Tu5D1hDWez-545" value="Testing" style="whiteSpace=wrap;html=1;rounded=1;shadow=1;comic=0;labelBackgroundColor=none;strokeWidth=2;fontFamily=Verdana;fontSize=12;align=center;arcSize=50;fillColor=#dae8fc;strokeColor=#6c8ebf;" vertex="1" parent="smbsbleAU1Tu5D1hDWez-126">
          <mxGeometry x="200" y="3740" width="180" height="40" as="geometry" />
        </mxCell>
        <mxCell id="smbsbleAU1Tu5D1hDWez-563" value="Module Leader / Bundler" style="whiteSpace=wrap;html=1;rounded=1;shadow=1;comic=0;labelBackgroundColor=none;strokeWidth=2;fontFamily=Verdana;fontSize=12;align=center;arcSize=50;fillColor=#dae8fc;strokeColor=#6c8ebf;" vertex="1" parent="smbsbleAU1Tu5D1hDWez-126">
          <mxGeometry x="200" y="3910" width="180" height="40" as="geometry" />
        </mxCell>
        <mxCell id="smbsbleAU1Tu5D1hDWez-654" value="Type Script" style="whiteSpace=wrap;html=1;rounded=1;shadow=1;comic=0;labelBackgroundColor=none;strokeWidth=2;fontFamily=Verdana;fontSize=12;align=center;arcSize=50;fillColor=#dae8fc;strokeColor=#6c8ebf;" vertex="1" parent="smbsbleAU1Tu5D1hDWez-126">
          <mxGeometry x="200" y="4130" width="180" height="40" as="geometry" />
        </mxCell>
        <mxCell id="smbsbleAU1Tu5D1hDWez-752" value="Methodologies" style="whiteSpace=wrap;html=1;rounded=1;shadow=1;comic=0;labelBackgroundColor=none;strokeWidth=2;fontFamily=Verdana;fontSize=12;align=center;arcSize=50;fillColor=#dae8fc;strokeColor=#6c8ebf;" vertex="1" parent="smbsbleAU1Tu5D1hDWez-126">
          <mxGeometry x="200" y="4270" width="180" height="40" as="geometry" />
        </mxCell>
        <mxCell id="smbsbleAU1Tu5D1hDWez-846" value="Dive Deep CSS3" style="whiteSpace=wrap;html=1;rounded=1;shadow=1;comic=0;labelBackgroundColor=none;strokeWidth=2;fontFamily=Verdana;fontSize=12;align=center;arcSize=50;fillColor=#dae8fc;strokeColor=#6c8ebf;" vertex="1" parent="smbsbleAU1Tu5D1hDWez-126">
          <mxGeometry x="200" y="4530" width="180" height="40" as="geometry" />
        </mxCell>
        <mxCell id="smbsbleAU1Tu5D1hDWez-867" value="SMACSS" style="whiteSpace=wrap;html=1;rounded=1;shadow=1;comic=0;labelBackgroundColor=none;strokeWidth=2;fontFamily=Verdana;fontSize=12;align=center;arcSize=50;" vertex="1" parent="smbsbleAU1Tu5D1hDWez-126">
          <mxGeometry x="460" y="4420" width="180" height="40" as="geometry" />
        </mxCell>
        <mxCell id="smbsbleAU1Tu5D1hDWez-564" value="Webpack" style="whiteSpace=wrap;html=1;rounded=1;shadow=1;comic=0;labelBackgroundColor=none;strokeWidth=2;fontFamily=Verdana;fontSize=12;align=center;arcSize=50;fillColor=#E6E6E6;" vertex="1" parent="smbsbleAU1Tu5D1hDWez-126">
          <mxGeometry x="460" y="3910" width="180" height="40" as="geometry" />
        </mxCell>
        <mxCell id="smbsbleAU1Tu5D1hDWez-548" value="Jasmine" style="whiteSpace=wrap;html=1;rounded=1;shadow=1;comic=0;labelBackgroundColor=none;strokeWidth=2;fontFamily=Verdana;fontSize=12;align=center;arcSize=50;" vertex="1" parent="smbsbleAU1Tu5D1hDWez-126">
          <mxGeometry x="460" y="3840" width="180" height="40" as="geometry" />
        </mxCell>
        <mxCell id="smbsbleAU1Tu5D1hDWez-547" value="Mocha" style="whiteSpace=wrap;html=1;rounded=1;shadow=1;comic=0;labelBackgroundColor=none;strokeWidth=2;fontFamily=Verdana;fontSize=12;align=center;arcSize=50;fillColor=#E6E6E6;" vertex="1" parent="smbsbleAU1Tu5D1hDWez-126">
          <mxGeometry x="460" y="3790" width="180" height="40" as="geometry" />
        </mxCell>
        <mxCell id="smbsbleAU1Tu5D1hDWez-546" value="Jest" style="whiteSpace=wrap;html=1;rounded=1;shadow=1;comic=0;labelBackgroundColor=none;strokeWidth=2;fontFamily=Verdana;fontSize=12;align=center;arcSize=50;fillColor=#E6E6E6;" vertex="1" parent="smbsbleAU1Tu5D1hDWez-126">
          <mxGeometry x="460" y="3740" width="180" height="40" as="geometry" />
        </mxCell>
        <mxCell id="smbsbleAU1Tu5D1hDWez-553" value="Ember JS" style="whiteSpace=wrap;html=1;rounded=1;shadow=1;comic=0;labelBackgroundColor=none;strokeWidth=2;fontFamily=Verdana;fontSize=12;align=center;arcSize=50;" vertex="1" parent="smbsbleAU1Tu5D1hDWez-126">
          <mxGeometry x="460" y="3570" width="180" height="40" as="geometry" />
        </mxCell>
        <mxCell id="smbsbleAU1Tu5D1hDWez-407" value="Task Runners" style="whiteSpace=wrap;html=1;rounded=1;shadow=1;comic=0;labelBackgroundColor=none;strokeWidth=2;fontFamily=Verdana;fontSize=12;align=center;arcSize=50;fillColor=#dae8fc;strokeColor=#6c8ebf;" vertex="1" parent="smbsbleAU1Tu5D1hDWez-126">
          <mxGeometry x="200" y="3130" width="180" height="40" as="geometry" />
        </mxCell>
        <mxCell id="smbsbleAU1Tu5D1hDWez-542" value="Package Manager" style="whiteSpace=wrap;html=1;rounded=1;shadow=1;comic=0;labelBackgroundColor=none;strokeWidth=2;fontFamily=Verdana;fontSize=12;align=center;arcSize=50;fillColor=#dae8fc;strokeColor=#6c8ebf;" vertex="1" parent="smbsbleAU1Tu5D1hDWez-126">
          <mxGeometry x="200" y="3300" width="180" height="40" as="geometry" />
        </mxCell>
        <mxCell id="smbsbleAU1Tu5D1hDWez-543" value="Yarn" style="whiteSpace=wrap;html=1;rounded=1;shadow=1;comic=0;labelBackgroundColor=none;strokeWidth=2;fontFamily=Verdana;fontSize=12;align=center;arcSize=50;fillColor=#E6E6E6;" vertex="1" parent="smbsbleAU1Tu5D1hDWez-126">
          <mxGeometry x="460" y="3300" width="180" height="40" as="geometry" />
        </mxCell>
        <mxCell id="smbsbleAU1Tu5D1hDWez-411" value="grunt" style="whiteSpace=wrap;html=1;rounded=1;shadow=1;comic=0;labelBackgroundColor=none;strokeWidth=2;fontFamily=Verdana;fontSize=12;align=center;arcSize=50;" vertex="1" parent="smbsbleAU1Tu5D1hDWez-126">
          <mxGeometry x="460" y="3230" width="180" height="40" as="geometry" />
        </mxCell>
        <mxCell id="smbsbleAU1Tu5D1hDWez-410" value="gulp" style="whiteSpace=wrap;html=1;rounded=1;shadow=1;comic=0;labelBackgroundColor=none;strokeWidth=2;fontFamily=Verdana;fontSize=12;align=center;arcSize=50;strokeColor=#666666;fontColor=#333333;fillColor=#E6E6E6;" vertex="1" parent="smbsbleAU1Tu5D1hDWez-126">
          <mxGeometry x="460" y="3180" width="180" height="40" as="geometry" />
        </mxCell>
        <mxCell id="smbsbleAU1Tu5D1hDWez-408" value="npm scripts" style="whiteSpace=wrap;html=1;rounded=1;shadow=1;comic=0;labelBackgroundColor=none;strokeWidth=2;fontFamily=Verdana;fontSize=12;align=center;arcSize=50;strokeColor=#666666;fontColor=#333333;fillColor=#E6E6E6;" vertex="1" parent="smbsbleAU1Tu5D1hDWez-126">
          <mxGeometry x="460" y="3130" width="180" height="40" as="geometry" />
        </mxCell>
        <mxCell id="smbsbleAU1Tu5D1hDWez-540" value="Json" style="whiteSpace=wrap;html=1;rounded=1;shadow=1;comic=0;labelBackgroundColor=none;strokeWidth=2;fontFamily=Verdana;fontSize=12;align=center;arcSize=50;fillColor=#dae8fc;strokeColor=#6c8ebf;" vertex="1" parent="smbsbleAU1Tu5D1hDWez-126">
          <mxGeometry x="200" y="3080" width="180" height="40" as="geometry" />
        </mxCell>
        <mxCell id="smbsbleAU1Tu5D1hDWez-478" value="XML" style="whiteSpace=wrap;html=1;rounded=1;shadow=1;comic=0;labelBackgroundColor=none;strokeWidth=2;fontFamily=Verdana;fontSize=12;align=center;arcSize=50;fillColor=#dae8fc;strokeColor=#6c8ebf;" vertex="1" parent="smbsbleAU1Tu5D1hDWez-126">
          <mxGeometry x="200" y="3030" width="180" height="40" as="geometry" />
        </mxCell>
        <mxCell id="smbsbleAU1Tu5D1hDWez-417" value="Belajar Fetch API/Ajax&lt;br&gt;&amp;nbsp;(XHR)" style="whiteSpace=wrap;html=1;rounded=1;shadow=1;comic=0;labelBackgroundColor=none;strokeWidth=2;fontFamily=Verdana;fontSize=12;align=center;arcSize=50;fillColor=#dae8fc;strokeColor=#6c8ebf;" vertex="1" parent="smbsbleAU1Tu5D1hDWez-126">
          <mxGeometry x="200" y="2980" width="180" height="40" as="geometry" />
        </mxCell>
        <mxCell id="smbsbleAU1Tu5D1hDWez-415" value="ES6+ dan Modular JavaScript" style="whiteSpace=wrap;html=1;rounded=1;shadow=1;comic=0;labelBackgroundColor=none;strokeWidth=2;fontFamily=Verdana;fontSize=12;align=center;arcSize=50;fillColor=#dae8fc;strokeColor=#6c8ebf;" vertex="1" parent="smbsbleAU1Tu5D1hDWez-126">
          <mxGeometry x="200" y="2930" width="180" height="40" as="geometry" />
        </mxCell>
        <mxCell id="smbsbleAU1Tu5D1hDWez-544" value="npm" style="whiteSpace=wrap;html=1;rounded=1;shadow=1;comic=0;labelBackgroundColor=none;strokeWidth=2;fontFamily=Verdana;fontSize=12;align=center;arcSize=50;fillColor=#E6E6E6;" vertex="1" parent="smbsbleAU1Tu5D1hDWez-126">
          <mxGeometry x="460" y="3350" width="180" height="40" as="geometry" />
        </mxCell>
        <mxCell id="smbsbleAU1Tu5D1hDWez-550" value="Angular" style="whiteSpace=wrap;html=1;rounded=1;shadow=1;comic=0;labelBackgroundColor=none;strokeWidth=2;fontFamily=Verdana;fontSize=12;align=center;arcSize=50;fillColor=#E6E6E6;" vertex="1" parent="smbsbleAU1Tu5D1hDWez-126">
          <mxGeometry x="460" y="3420" width="180" height="40" as="geometry" />
        </mxCell>
        <mxCell id="smbsbleAU1Tu5D1hDWez-551" value="React.js" style="whiteSpace=wrap;html=1;rounded=1;shadow=1;comic=0;labelBackgroundColor=none;strokeWidth=2;fontFamily=Verdana;fontSize=12;align=center;arcSize=50;fillColor=#E6E6E6;" vertex="1" parent="smbsbleAU1Tu5D1hDWez-126">
          <mxGeometry x="460" y="3470" width="180" height="40" as="geometry" />
        </mxCell>
        <mxCell id="smbsbleAU1Tu5D1hDWez-552" value="Vue.js" style="whiteSpace=wrap;html=1;rounded=1;shadow=1;comic=0;labelBackgroundColor=none;strokeWidth=2;fontFamily=Verdana;fontSize=12;align=center;arcSize=50;fillColor=#E6E6E6;" vertex="1" parent="smbsbleAU1Tu5D1hDWez-126">
          <mxGeometry x="460" y="3520" width="180" height="40" as="geometry" />
        </mxCell>
        <mxCell id="smbsbleAU1Tu5D1hDWez-554" value="Preact" style="whiteSpace=wrap;html=1;rounded=1;shadow=1;comic=0;labelBackgroundColor=none;strokeWidth=2;fontFamily=Verdana;fontSize=12;align=center;arcSize=50;" vertex="1" parent="smbsbleAU1Tu5D1hDWez-126">
          <mxGeometry x="460" y="3620" width="180" height="40" as="geometry" />
        </mxCell>
        <mxCell id="smbsbleAU1Tu5D1hDWez-555" value="Inferno" style="whiteSpace=wrap;html=1;rounded=1;shadow=1;comic=0;labelBackgroundColor=none;strokeWidth=2;fontFamily=Verdana;fontSize=12;align=center;arcSize=50;" vertex="1" parent="smbsbleAU1Tu5D1hDWez-126">
          <mxGeometry x="460" y="3670" width="180" height="40" as="geometry" />
        </mxCell>
        <mxCell id="smbsbleAU1Tu5D1hDWez-565" value="rollup" style="whiteSpace=wrap;html=1;rounded=1;shadow=1;comic=0;labelBackgroundColor=none;strokeWidth=2;fontFamily=Verdana;fontSize=12;align=center;arcSize=50;" vertex="1" parent="smbsbleAU1Tu5D1hDWez-126">
          <mxGeometry x="460" y="3960" width="180" height="40" as="geometry" />
        </mxCell>
        <mxCell id="smbsbleAU1Tu5D1hDWez-566" value="Require JS / AMD" style="whiteSpace=wrap;html=1;rounded=1;shadow=1;comic=0;labelBackgroundColor=none;strokeWidth=2;fontFamily=Verdana;fontSize=12;align=center;arcSize=50;" vertex="1" parent="smbsbleAU1Tu5D1hDWez-126">
          <mxGeometry x="460" y="4010" width="180" height="40" as="geometry" />
        </mxCell>
        <mxCell id="smbsbleAU1Tu5D1hDWez-653" value="Browserify" style="whiteSpace=wrap;html=1;rounded=1;shadow=1;comic=0;labelBackgroundColor=none;strokeWidth=2;fontFamily=Verdana;fontSize=12;align=center;arcSize=50;" vertex="1" parent="smbsbleAU1Tu5D1hDWez-126">
          <mxGeometry x="460" y="4060" width="180" height="40" as="geometry" />
        </mxCell>
        <mxCell id="smbsbleAU1Tu5D1hDWez-655" value="Flow" style="whiteSpace=wrap;html=1;rounded=1;shadow=1;comic=0;labelBackgroundColor=none;strokeWidth=2;fontFamily=Verdana;fontSize=12;align=center;arcSize=50;" vertex="1" parent="smbsbleAU1Tu5D1hDWez-126">
          <mxGeometry x="460" y="4130" width="180" height="40" as="geometry" />
        </mxCell>
        <mxCell id="smbsbleAU1Tu5D1hDWez-864" value="SUITCSS" style="whiteSpace=wrap;html=1;rounded=1;shadow=1;comic=0;labelBackgroundColor=none;strokeWidth=2;fontFamily=Verdana;fontSize=12;align=center;arcSize=50;" vertex="1" parent="smbsbleAU1Tu5D1hDWez-126">
          <mxGeometry x="460" y="4270" width="180" height="40" as="geometry" />
        </mxCell>
        <mxCell id="smbsbleAU1Tu5D1hDWez-865" value="BEM" style="whiteSpace=wrap;html=1;rounded=1;shadow=1;comic=0;labelBackgroundColor=none;strokeWidth=2;fontFamily=Verdana;fontSize=12;align=center;arcSize=50;fillColor=#E6E6E6;" vertex="1" parent="smbsbleAU1Tu5D1hDWez-126">
          <mxGeometry x="460" y="4320" width="180" height="40" as="geometry" />
        </mxCell>
        <mxCell id="smbsbleAU1Tu5D1hDWez-866" value="OOCSS" style="whiteSpace=wrap;html=1;rounded=1;shadow=1;comic=0;labelBackgroundColor=none;strokeWidth=2;fontFamily=Verdana;fontSize=12;align=center;arcSize=50;" vertex="1" parent="smbsbleAU1Tu5D1hDWez-126">
          <mxGeometry x="460" y="4370" width="180" height="40" as="geometry" />
        </mxCell>
        <mxCell id="smbsbleAU1Tu5D1hDWez-868" value="Systematic CSS" style="whiteSpace=wrap;html=1;rounded=1;shadow=1;comic=0;labelBackgroundColor=none;strokeWidth=2;fontFamily=Verdana;fontSize=12;align=center;arcSize=50;" vertex="1" parent="smbsbleAU1Tu5D1hDWez-126">
          <mxGeometry x="460" y="4470" width="180" height="40" as="geometry" />
        </mxCell>
        <mxCell id="smbsbleAU1Tu5D1hDWez-871" value="Flexbox" style="whiteSpace=wrap;html=1;rounded=1;shadow=1;comic=0;labelBackgroundColor=none;strokeWidth=2;fontFamily=Verdana;fontSize=12;align=center;arcSize=50;fillColor=#E6E6E6;" vertex="1" parent="smbsbleAU1Tu5D1hDWez-126">
          <mxGeometry x="460" y="4540" width="180" height="20" as="geometry" />
        </mxCell>
        <mxCell id="smbsbleAU1Tu5D1hDWez-872" value="Gradients" style="whiteSpace=wrap;html=1;rounded=1;shadow=1;comic=0;labelBackgroundColor=none;strokeWidth=2;fontFamily=Verdana;fontSize=12;align=center;arcSize=50;fillColor=#E6E6E6;" vertex="1" parent="smbsbleAU1Tu5D1hDWez-126">
          <mxGeometry x="460" y="4570" width="180" height="20" as="geometry" />
        </mxCell>
        <mxCell id="smbsbleAU1Tu5D1hDWez-873" value="Grids" style="whiteSpace=wrap;html=1;rounded=1;shadow=1;comic=0;labelBackgroundColor=none;strokeWidth=2;fontFamily=Verdana;fontSize=12;align=center;arcSize=50;fillColor=#E6E6E6;" vertex="1" parent="smbsbleAU1Tu5D1hDWez-126">
          <mxGeometry x="460" y="4600" width="180" height="20" as="geometry" />
        </mxCell>
        <mxCell id="smbsbleAU1Tu5D1hDWez-874" value="Rotate" style="whiteSpace=wrap;html=1;rounded=1;shadow=1;comic=0;labelBackgroundColor=none;strokeWidth=2;fontFamily=Verdana;fontSize=12;align=center;arcSize=50;fillColor=#E6E6E6;" vertex="1" parent="smbsbleAU1Tu5D1hDWez-126">
          <mxGeometry x="460" y="4630" width="180" height="20" as="geometry" />
        </mxCell>
        <mxCell id="smbsbleAU1Tu5D1hDWez-875" value="Transform" style="whiteSpace=wrap;html=1;rounded=1;shadow=1;comic=0;labelBackgroundColor=none;strokeWidth=2;fontFamily=Verdana;fontSize=12;align=center;arcSize=50;fillColor=#E6E6E6;" vertex="1" parent="smbsbleAU1Tu5D1hDWez-126">
          <mxGeometry x="460" y="4660" width="180" height="20" as="geometry" />
        </mxCell>
        <mxCell id="smbsbleAU1Tu5D1hDWez-876" value="Skew" style="whiteSpace=wrap;html=1;rounded=1;shadow=1;comic=0;labelBackgroundColor=none;strokeWidth=2;fontFamily=Verdana;fontSize=12;align=center;arcSize=50;fillColor=#E6E6E6;" vertex="1" parent="smbsbleAU1Tu5D1hDWez-126">
          <mxGeometry x="460" y="4690" width="180" height="20" as="geometry" />
        </mxCell>
        <mxCell id="smbsbleAU1Tu5D1hDWez-877" value="Scale" style="whiteSpace=wrap;html=1;rounded=1;shadow=1;comic=0;labelBackgroundColor=none;strokeWidth=2;fontFamily=Verdana;fontSize=12;align=center;arcSize=50;fillColor=#E6E6E6;" vertex="1" parent="smbsbleAU1Tu5D1hDWez-126">
          <mxGeometry x="460" y="4720" width="180" height="20" as="geometry" />
        </mxCell>
        <mxCell id="smbsbleAU1Tu5D1hDWez-878" value="Transitions" style="whiteSpace=wrap;html=1;rounded=1;shadow=1;comic=0;labelBackgroundColor=none;strokeWidth=2;fontFamily=Verdana;fontSize=12;align=center;arcSize=50;fillColor=#E6E6E6;" vertex="1" parent="smbsbleAU1Tu5D1hDWez-126">
          <mxGeometry x="460" y="4750" width="180" height="20" as="geometry" />
        </mxCell>
        <mxCell id="smbsbleAU1Tu5D1hDWez-261" value="Membuat Form &amp;amp; Validasi" style="whiteSpace=wrap;html=1;rounded=1;shadow=1;comic=0;labelBackgroundColor=none;strokeWidth=2;fontFamily=Verdana;fontSize=12;align=center;arcSize=50;fillColor=#dae8fc;strokeColor=#6c8ebf;" vertex="1" parent="smbsbleAU1Tu5D1hDWez-126">
          <mxGeometry x="200" y="1940" width="180" height="40" as="geometry" />
        </mxCell>
        <mxCell id="smbsbleAU1Tu5D1hDWez-237" value="Semantic HTML" style="whiteSpace=wrap;html=1;rounded=1;shadow=1;comic=0;labelBackgroundColor=none;strokeWidth=2;fontFamily=Verdana;fontSize=12;align=center;arcSize=50;fillColor=#dae8fc;strokeColor=#6c8ebf;" vertex="1" parent="smbsbleAU1Tu5D1hDWez-126">
          <mxGeometry x="200" y="1890" width="180" height="40" as="geometry" />
        </mxCell>
        <mxCell id="smbsbleAU1Tu5D1hDWez-144" value="Belajar Dasar Penyusun Tampilan Website" style="rounded=1;whiteSpace=wrap;html=1;shadow=1;comic=0;labelBackgroundColor=none;strokeWidth=2;fontFamily=Verdana;fontSize=12;align=center;fillColor=#0050ef;strokeColor=#001DBC;fontColor=#ffffff;" vertex="1" parent="smbsbleAU1Tu5D1hDWez-126">
          <mxGeometry x="10" y="640" width="120" height="60" as="geometry" />
        </mxCell>
        <mxCell id="smbsbleAU1Tu5D1hDWez-149" value="" style="endArrow=none;html=1;entryX=1;entryY=0.5;entryDx=0;entryDy=0;exitX=0;exitY=0.5;exitDx=0;exitDy=0;" edge="1" parent="smbsbleAU1Tu5D1hDWez-126" source="smbsbleAU1Tu5D1hDWez-145" target="smbsbleAU1Tu5D1hDWez-144">
          <mxGeometry width="50" height="50" relative="1" as="geometry">
            <mxPoint x="-191" y="570" as="sourcePoint" />
            <mxPoint x="-306" y="460" as="targetPoint" />
          </mxGeometry>
        </mxCell>
        <mxCell id="smbsbleAU1Tu5D1hDWez-153" value="" style="endArrow=none;html=1;entryX=1;entryY=0.75;entryDx=0;entryDy=0;exitX=0;exitY=0.5;exitDx=0;exitDy=0;" edge="1" parent="smbsbleAU1Tu5D1hDWez-126" source="smbsbleAU1Tu5D1hDWez-147" target="smbsbleAU1Tu5D1hDWez-144">
          <mxGeometry width="50" height="50" relative="1" as="geometry">
            <mxPoint x="210" y="680" as="sourcePoint" />
            <mxPoint x="140" y="680" as="targetPoint" />
          </mxGeometry>
        </mxCell>
        <mxCell id="smbsbleAU1Tu5D1hDWez-156" value="" style="endArrow=none;html=1;exitX=0;exitY=0.5;exitDx=0;exitDy=0;entryX=0.75;entryY=1;entryDx=0;entryDy=0;" edge="1" parent="smbsbleAU1Tu5D1hDWez-126" source="smbsbleAU1Tu5D1hDWez-148" target="smbsbleAU1Tu5D1hDWez-144">
          <mxGeometry width="50" height="50" relative="1" as="geometry">
            <mxPoint x="210" y="949.9999999999998" as="sourcePoint" />
            <mxPoint x="140" y="890" as="targetPoint" />
          </mxGeometry>
        </mxCell>
        <mxCell id="smbsbleAU1Tu5D1hDWez-177" value="" style="endArrow=none;html=1;exitX=1;exitY=0.5;exitDx=0;exitDy=0;entryX=0;entryY=0.5;entryDx=0;entryDy=0;" edge="1" parent="smbsbleAU1Tu5D1hDWez-126" source="smbsbleAU1Tu5D1hDWez-148" target="smbsbleAU1Tu5D1hDWez-157">
          <mxGeometry width="50" height="50" relative="1" as="geometry">
            <mxPoint x="210" y="989.9999999999998" as="sourcePoint" />
            <mxPoint x="140" y="909.9999999999998" as="targetPoint" />
          </mxGeometry>
        </mxCell>
        <mxCell id="smbsbleAU1Tu5D1hDWez-190" value="" style="endArrow=none;html=1;entryX=1;entryY=0.5;entryDx=0;entryDy=0;exitX=0;exitY=0.5;exitDx=0;exitDy=0;" edge="1" parent="smbsbleAU1Tu5D1hDWez-126" source="smbsbleAU1Tu5D1hDWez-185" target="smbsbleAU1Tu5D1hDWez-145">
          <mxGeometry width="50" height="50" relative="1" as="geometry">
            <mxPoint x="440" y="929" as="sourcePoint" />
            <mxPoint x="370" y="690" as="targetPoint" />
          </mxGeometry>
        </mxCell>
        <mxCell id="smbsbleAU1Tu5D1hDWez-147" value="Penyusun Tampilan Web&lt;br&gt;CSS" style="whiteSpace=wrap;html=1;rounded=1;shadow=1;comic=0;labelBackgroundColor=none;strokeWidth=2;fontFamily=Verdana;fontSize=12;align=center;arcSize=50;fillColor=#dae8fc;strokeColor=#6c8ebf;" vertex="1" parent="smbsbleAU1Tu5D1hDWez-126">
          <mxGeometry x="200" y="780" width="180" height="40" as="geometry" />
        </mxCell>
        <mxCell id="smbsbleAU1Tu5D1hDWez-148" value="JavaScript" style="whiteSpace=wrap;html=1;rounded=1;shadow=1;comic=0;labelBackgroundColor=none;strokeWidth=2;fontFamily=Verdana;fontSize=12;align=center;arcSize=50;fillColor=#dae8fc;strokeColor=#6c8ebf;" vertex="1" parent="smbsbleAU1Tu5D1hDWez-126">
          <mxGeometry x="200" y="910" width="180" height="40" as="geometry" />
        </mxCell>
        <mxCell id="smbsbleAU1Tu5D1hDWez-233" value="jQuery" style="whiteSpace=wrap;html=1;rounded=1;shadow=1;comic=0;labelBackgroundColor=none;strokeWidth=2;fontFamily=Verdana;fontSize=12;align=center;arcSize=50;" vertex="1" parent="smbsbleAU1Tu5D1hDWez-126">
          <mxGeometry x="200" y="1040" width="180" height="40" as="geometry" />
        </mxCell>
        <mxCell id="smbsbleAU1Tu5D1hDWez-298" value="Responsive Desain" style="whiteSpace=wrap;html=1;rounded=1;shadow=1;comic=0;labelBackgroundColor=none;strokeWidth=2;fontFamily=Verdana;fontSize=12;align=center;arcSize=50;fillColor=#dae8fc;strokeColor=#6c8ebf;" vertex="1" parent="smbsbleAU1Tu5D1hDWez-126">
          <mxGeometry x="200" y="2120" width="180" height="40" as="geometry" />
        </mxCell>
        <mxCell id="smbsbleAU1Tu5D1hDWez-299" value="Buat Layout" style="whiteSpace=wrap;html=1;rounded=1;shadow=1;comic=0;labelBackgroundColor=none;strokeWidth=2;fontFamily=Verdana;fontSize=12;align=center;arcSize=50;fillColor=#dae8fc;strokeColor=#6c8ebf;" vertex="1" parent="smbsbleAU1Tu5D1hDWez-126">
          <mxGeometry x="200" y="2170" width="180" height="40" as="geometry" />
        </mxCell>
        <mxCell id="smbsbleAU1Tu5D1hDWez-303" value="Preprocessors" style="whiteSpace=wrap;html=1;rounded=1;shadow=1;comic=0;labelBackgroundColor=none;strokeWidth=2;fontFamily=Verdana;fontSize=12;align=center;arcSize=50;fillColor=#dae8fc;strokeColor=#6c8ebf;" vertex="1" parent="smbsbleAU1Tu5D1hDWez-126">
          <mxGeometry x="200" y="2240" width="180" height="40" as="geometry" />
        </mxCell>
        <mxCell id="smbsbleAU1Tu5D1hDWez-346" value="CSS Icons" style="whiteSpace=wrap;html=1;rounded=1;shadow=1;comic=0;labelBackgroundColor=none;strokeWidth=2;fontFamily=Verdana;fontSize=12;align=center;arcSize=50;fillColor=#dae8fc;strokeColor=#6c8ebf;" vertex="1" parent="smbsbleAU1Tu5D1hDWez-126">
          <mxGeometry x="200" y="2460" width="180" height="40" as="geometry" />
        </mxCell>
        <mxCell id="smbsbleAU1Tu5D1hDWez-301" value="Float, Positioning, Display, Box Model, CSS Gird, Flex Box" style="whiteSpace=wrap;html=1;rounded=1;shadow=1;comic=0;labelBackgroundColor=none;strokeWidth=2;fontFamily=Verdana;fontSize=12;align=center;arcSize=50;fillColor=#E6E6E6;" vertex="1" parent="smbsbleAU1Tu5D1hDWez-126">
          <mxGeometry x="460" y="2160" width="180" height="60" as="geometry" />
        </mxCell>
        <mxCell id="smbsbleAU1Tu5D1hDWez-207" value="CSS" style="whiteSpace=wrap;html=1;rounded=1;shadow=1;comic=0;labelBackgroundColor=none;strokeWidth=2;fontFamily=Verdana;fontSize=12;align=center;arcSize=50;fillColor=#E6E6E6;" vertex="1" parent="smbsbleAU1Tu5D1hDWez-126">
          <mxGeometry x="460" y="780" width="180" height="40" as="geometry" />
        </mxCell>
        <mxCell id="smbsbleAU1Tu5D1hDWez-145" value="Struktur Dasar Website HTML" style="whiteSpace=wrap;html=1;rounded=1;shadow=1;comic=0;labelBackgroundColor=none;strokeWidth=2;fontFamily=Verdana;fontSize=12;align=center;arcSize=50;fillColor=#dae8fc;strokeColor=#6c8ebf;" vertex="1" parent="smbsbleAU1Tu5D1hDWez-126">
          <mxGeometry x="200" y="650" width="180" height="40" as="geometry" />
        </mxCell>
        <mxCell id="smbsbleAU1Tu5D1hDWez-185" value="HTML" style="whiteSpace=wrap;html=1;rounded=1;shadow=1;comic=0;labelBackgroundColor=none;strokeWidth=2;fontFamily=Verdana;fontSize=12;align=center;arcSize=50;fillColor=#E6E6E6;" vertex="1" parent="smbsbleAU1Tu5D1hDWez-126">
          <mxGeometry x="460" y="650" width="180" height="40" as="geometry" />
        </mxCell>
        <mxCell id="smbsbleAU1Tu5D1hDWez-187" value="HTTP/XHR" style="whiteSpace=wrap;html=1;rounded=1;shadow=1;comic=0;labelBackgroundColor=none;strokeWidth=2;fontFamily=Verdana;fontSize=12;align=center;arcSize=50;fillColor=#E6E6E6;" vertex="1" parent="smbsbleAU1Tu5D1hDWez-126">
          <mxGeometry x="460" y="706" width="180" height="40" as="geometry" />
        </mxCell>
        <mxCell id="smbsbleAU1Tu5D1hDWez-192" value="" style="endArrow=none;html=1;entryX=1;entryY=0.75;entryDx=0;entryDy=0;exitX=0;exitY=0.5;exitDx=0;exitDy=0;" edge="1" parent="smbsbleAU1Tu5D1hDWez-126" source="smbsbleAU1Tu5D1hDWez-187" target="smbsbleAU1Tu5D1hDWez-145">
          <mxGeometry width="50" height="50" relative="1" as="geometry">
            <mxPoint x="470" y="680" as="sourcePoint" />
            <mxPoint x="390" y="680" as="targetPoint" />
          </mxGeometry>
        </mxCell>
        <mxCell id="smbsbleAU1Tu5D1hDWez-208" value="CSS Responsive" style="whiteSpace=wrap;html=1;rounded=1;shadow=1;comic=0;labelBackgroundColor=none;strokeWidth=2;fontFamily=Verdana;fontSize=12;align=center;arcSize=50;fillColor=#E6E6E6;" vertex="1" parent="smbsbleAU1Tu5D1hDWez-126">
          <mxGeometry x="460" y="836" width="180" height="40" as="geometry" />
        </mxCell>
        <mxCell id="smbsbleAU1Tu5D1hDWez-209" value="" style="endArrow=none;html=1;entryX=1;entryY=0.5;entryDx=0;entryDy=0;" edge="1" parent="smbsbleAU1Tu5D1hDWez-126" source="smbsbleAU1Tu5D1hDWez-207" target="smbsbleAU1Tu5D1hDWez-147">
          <mxGeometry width="50" height="50" relative="1" as="geometry">
            <mxPoint x="470" y="736" as="sourcePoint" />
            <mxPoint x="390" y="690" as="targetPoint" />
          </mxGeometry>
        </mxCell>
        <mxCell id="smbsbleAU1Tu5D1hDWez-210" value="" style="endArrow=none;html=1;entryX=1;entryY=0.75;entryDx=0;entryDy=0;exitX=0;exitY=0.5;exitDx=0;exitDy=0;" edge="1" parent="smbsbleAU1Tu5D1hDWez-126" source="smbsbleAU1Tu5D1hDWez-208" target="smbsbleAU1Tu5D1hDWez-147">
          <mxGeometry width="50" height="50" relative="1" as="geometry">
            <mxPoint x="470" y="810" as="sourcePoint" />
            <mxPoint x="390" y="810" as="targetPoint" />
          </mxGeometry>
        </mxCell>
        <mxCell id="smbsbleAU1Tu5D1hDWez-157" value="JavaScript" style="whiteSpace=wrap;html=1;rounded=1;shadow=1;comic=0;labelBackgroundColor=none;strokeWidth=2;fontFamily=Verdana;fontSize=12;align=center;arcSize=50;fillColor=#E6E6E6;" vertex="1" parent="smbsbleAU1Tu5D1hDWez-126">
          <mxGeometry x="460" y="910" width="180" height="40" as="geometry" />
        </mxCell>
        <mxCell id="smbsbleAU1Tu5D1hDWez-229" value="ECMAScript 5" style="whiteSpace=wrap;html=1;rounded=1;shadow=1;comic=0;labelBackgroundColor=none;strokeWidth=2;fontFamily=Verdana;fontSize=12;align=center;arcSize=50;fillColor=#E6E6E6;" vertex="1" parent="smbsbleAU1Tu5D1hDWez-126">
          <mxGeometry x="460" y="970" width="180" height="40" as="geometry" />
        </mxCell>
        <mxCell id="smbsbleAU1Tu5D1hDWez-231" value="" style="endArrow=none;html=1;exitX=1;exitY=0.75;exitDx=0;exitDy=0;entryX=0;entryY=0.5;entryDx=0;entryDy=0;" edge="1" parent="smbsbleAU1Tu5D1hDWez-126" source="smbsbleAU1Tu5D1hDWez-148" target="smbsbleAU1Tu5D1hDWez-229">
          <mxGeometry width="50" height="50" relative="1" as="geometry">
            <mxPoint x="390" y="939.9999999999998" as="sourcePoint" />
            <mxPoint x="470" y="939.9999999999998" as="targetPoint" />
          </mxGeometry>
        </mxCell>
        <mxCell id="smbsbleAU1Tu5D1hDWez-234" value="" style="endArrow=none;html=1;exitX=0;exitY=0.5;exitDx=0;exitDy=0;entryX=0.5;entryY=1;entryDx=0;entryDy=0;" edge="1" parent="smbsbleAU1Tu5D1hDWez-126" source="smbsbleAU1Tu5D1hDWez-233" target="smbsbleAU1Tu5D1hDWez-144">
          <mxGeometry width="50" height="50" relative="1" as="geometry">
            <mxPoint x="210" y="939.9999999999998" as="sourcePoint" />
            <mxPoint x="110" y="709.9999999999998" as="targetPoint" />
          </mxGeometry>
        </mxCell>
        <mxCell id="smbsbleAU1Tu5D1hDWez-302" value="" style="endArrow=none;html=1;exitX=0;exitY=0.5;exitDx=0;exitDy=0;entryX=1;entryY=0.5;entryDx=0;entryDy=0;" edge="1" parent="smbsbleAU1Tu5D1hDWez-126" source="smbsbleAU1Tu5D1hDWez-301" target="smbsbleAU1Tu5D1hDWez-299">
          <mxGeometry width="50" height="50" relative="1" as="geometry">
            <mxPoint x="210" y="2070" as="sourcePoint" />
            <mxPoint x="110" y="1950" as="targetPoint" />
          </mxGeometry>
        </mxCell>
        <mxCell id="smbsbleAU1Tu5D1hDWez-304" value="Sass" style="whiteSpace=wrap;html=1;rounded=1;shadow=1;comic=0;labelBackgroundColor=none;strokeWidth=2;fontFamily=Verdana;fontSize=12;align=center;arcSize=50;fillColor=#E6E6E6;" vertex="1" parent="smbsbleAU1Tu5D1hDWez-126">
          <mxGeometry x="460" y="2240" width="180" height="40" as="geometry" />
        </mxCell>
        <mxCell id="smbsbleAU1Tu5D1hDWez-305" value="Less" style="whiteSpace=wrap;html=1;rounded=1;shadow=1;comic=0;labelBackgroundColor=none;strokeWidth=2;fontFamily=Verdana;fontSize=12;align=center;arcSize=50;" vertex="1" parent="smbsbleAU1Tu5D1hDWez-126">
          <mxGeometry x="460" y="2290" width="180" height="40" as="geometry" />
        </mxCell>
        <mxCell id="smbsbleAU1Tu5D1hDWez-306" value="Stylus" style="whiteSpace=wrap;html=1;rounded=1;shadow=1;comic=0;labelBackgroundColor=none;strokeWidth=2;fontFamily=Verdana;fontSize=12;align=center;arcSize=50;" vertex="1" parent="smbsbleAU1Tu5D1hDWez-126">
          <mxGeometry x="460" y="2340" width="180" height="40" as="geometry" />
        </mxCell>
        <mxCell id="smbsbleAU1Tu5D1hDWez-340" value="Post CSS" style="whiteSpace=wrap;html=1;rounded=1;shadow=1;comic=0;labelBackgroundColor=none;strokeWidth=2;fontFamily=Verdana;fontSize=12;align=center;arcSize=50;" vertex="1" parent="smbsbleAU1Tu5D1hDWez-126">
          <mxGeometry x="460" y="2390" width="180" height="40" as="geometry" />
        </mxCell>
        <mxCell id="smbsbleAU1Tu5D1hDWez-342" value="" style="endArrow=none;html=1;exitX=0;exitY=0.5;exitDx=0;exitDy=0;entryX=1;entryY=0.5;entryDx=0;entryDy=0;" edge="1" parent="smbsbleAU1Tu5D1hDWez-126" source="smbsbleAU1Tu5D1hDWez-304" target="smbsbleAU1Tu5D1hDWez-303">
          <mxGeometry width="50" height="50" relative="1" as="geometry">
            <mxPoint x="470" y="2200" as="sourcePoint" />
            <mxPoint x="390" y="2200" as="targetPoint" />
          </mxGeometry>
        </mxCell>
        <mxCell id="smbsbleAU1Tu5D1hDWez-343" value="" style="endArrow=none;html=1;exitX=0;exitY=0.5;exitDx=0;exitDy=0;entryX=1;entryY=0.75;entryDx=0;entryDy=0;" edge="1" parent="smbsbleAU1Tu5D1hDWez-126" source="smbsbleAU1Tu5D1hDWez-305" target="smbsbleAU1Tu5D1hDWez-303">
          <mxGeometry width="50" height="50" relative="1" as="geometry">
            <mxPoint x="470" y="2270" as="sourcePoint" />
            <mxPoint x="390" y="2270" as="targetPoint" />
          </mxGeometry>
        </mxCell>
        <mxCell id="smbsbleAU1Tu5D1hDWez-344" value="" style="endArrow=none;html=1;exitX=0;exitY=0.5;exitDx=0;exitDy=0;entryX=0.92;entryY=1.029;entryDx=0;entryDy=0;entryPerimeter=0;" edge="1" parent="smbsbleAU1Tu5D1hDWez-126" source="smbsbleAU1Tu5D1hDWez-306" target="smbsbleAU1Tu5D1hDWez-303">
          <mxGeometry width="50" height="50" relative="1" as="geometry">
            <mxPoint x="480" y="2280" as="sourcePoint" />
            <mxPoint x="400" y="2280" as="targetPoint" />
          </mxGeometry>
        </mxCell>
        <mxCell id="smbsbleAU1Tu5D1hDWez-345" value="" style="endArrow=none;html=1;exitX=0;exitY=0.5;exitDx=0;exitDy=0;entryX=0.75;entryY=1;entryDx=0;entryDy=0;" edge="1" parent="smbsbleAU1Tu5D1hDWez-126" source="smbsbleAU1Tu5D1hDWez-340" target="smbsbleAU1Tu5D1hDWez-303">
          <mxGeometry width="50" height="50" relative="1" as="geometry">
            <mxPoint x="490" y="2290" as="sourcePoint" />
            <mxPoint x="410" y="2290" as="targetPoint" />
          </mxGeometry>
        </mxCell>
        <mxCell id="smbsbleAU1Tu5D1hDWez-348" value="" style="endArrow=none;html=1;exitX=0;exitY=0.5;exitDx=0;exitDy=0;entryX=1;entryY=0.5;entryDx=0;entryDy=0;" edge="1" parent="smbsbleAU1Tu5D1hDWez-126" source="smbsbleAU1Tu5D1hDWez-298" target="smbsbleAU1Tu5D1hDWez-272">
          <mxGeometry width="50" height="50" relative="1" as="geometry">
            <mxPoint x="210" y="2070" as="sourcePoint" />
            <mxPoint x="110" y="1950" as="targetPoint" />
          </mxGeometry>
        </mxCell>
        <mxCell id="smbsbleAU1Tu5D1hDWez-349" value="" style="endArrow=none;html=1;exitX=0;exitY=0.5;exitDx=0;exitDy=0;entryX=1;entryY=0.75;entryDx=0;entryDy=0;" edge="1" parent="smbsbleAU1Tu5D1hDWez-126" source="smbsbleAU1Tu5D1hDWez-299" target="smbsbleAU1Tu5D1hDWez-272">
          <mxGeometry width="50" height="50" relative="1" as="geometry">
            <mxPoint x="210" y="2150" as="sourcePoint" />
            <mxPoint x="140" y="2150" as="targetPoint" />
          </mxGeometry>
        </mxCell>
        <mxCell id="smbsbleAU1Tu5D1hDWez-350" value="" style="endArrow=none;html=1;exitX=0;exitY=0.25;exitDx=0;exitDy=0;entryX=0.856;entryY=0.995;entryDx=0;entryDy=0;entryPerimeter=0;" edge="1" parent="smbsbleAU1Tu5D1hDWez-126" source="smbsbleAU1Tu5D1hDWez-303" target="smbsbleAU1Tu5D1hDWez-272">
          <mxGeometry width="50" height="50" relative="1" as="geometry">
            <mxPoint x="210" y="2200" as="sourcePoint" />
            <mxPoint x="140" y="2165" as="targetPoint" />
          </mxGeometry>
        </mxCell>
        <mxCell id="smbsbleAU1Tu5D1hDWez-394" value="Foundation" style="whiteSpace=wrap;html=1;rounded=1;shadow=1;comic=0;labelBackgroundColor=none;strokeWidth=2;fontFamily=Verdana;fontSize=12;align=center;arcSize=50;" vertex="1" parent="smbsbleAU1Tu5D1hDWez-126">
          <mxGeometry x="460" y="2510" width="180" height="40" as="geometry" />
        </mxCell>
        <mxCell id="smbsbleAU1Tu5D1hDWez-395" value="Bootstrap" style="whiteSpace=wrap;html=1;rounded=1;shadow=1;comic=0;labelBackgroundColor=none;strokeWidth=2;fontFamily=Verdana;fontSize=12;align=center;arcSize=50;fillColor=#E6E6E6;" vertex="1" parent="smbsbleAU1Tu5D1hDWez-126">
          <mxGeometry x="460" y="2560" width="180" height="40" as="geometry" />
        </mxCell>
        <mxCell id="smbsbleAU1Tu5D1hDWez-396" value="Materialize CSS" style="whiteSpace=wrap;html=1;rounded=1;shadow=1;comic=0;labelBackgroundColor=none;strokeWidth=2;fontFamily=Verdana;fontSize=12;align=center;arcSize=50;" vertex="1" parent="smbsbleAU1Tu5D1hDWez-126">
          <mxGeometry x="460" y="2610" width="180" height="40" as="geometry" />
        </mxCell>
        <mxCell id="smbsbleAU1Tu5D1hDWez-397" value="Semantic UI" style="whiteSpace=wrap;html=1;rounded=1;shadow=1;comic=0;labelBackgroundColor=none;strokeWidth=2;fontFamily=Verdana;fontSize=12;align=center;arcSize=50;fillColor=#E6E6E6;" vertex="1" parent="smbsbleAU1Tu5D1hDWez-126">
          <mxGeometry x="460" y="2660" width="180" height="40" as="geometry" />
        </mxCell>
        <mxCell id="smbsbleAU1Tu5D1hDWez-398" value="" style="endArrow=none;html=1;exitX=0;exitY=0.5;exitDx=0;exitDy=0;entryX=0.75;entryY=1;entryDx=0;entryDy=0;" edge="1" parent="smbsbleAU1Tu5D1hDWez-126" source="smbsbleAU1Tu5D1hDWez-346" target="smbsbleAU1Tu5D1hDWez-272">
          <mxGeometry width="50" height="50" relative="1" as="geometry">
            <mxPoint x="210" y="2260" as="sourcePoint" />
            <mxPoint x="122.72000000000025" y="2179.7" as="targetPoint" />
          </mxGeometry>
        </mxCell>
        <mxCell id="smbsbleAU1Tu5D1hDWez-127" value="BACK-END" style="swimlane;html=1;startSize=20;" vertex="1" parent="smbsbleAU1Tu5D1hDWez-124">
          <mxGeometry x="1040" y="20" width="350" height="7120" as="geometry" />
        </mxCell>
        <mxCell id="smbsbleAU1Tu5D1hDWez-405" value="" style="edgeStyle=orthogonalEdgeStyle;rounded=0;orthogonalLoop=1;jettySize=auto;html=1;strokeWidth=5;strokeColor=#003366;exitX=0.5;exitY=1;exitDx=0;exitDy=0;entryX=1.017;entryY=0.629;entryDx=0;entryDy=0;entryPerimeter=0;" edge="1" parent="smbsbleAU1Tu5D1hDWez-124" source="smbsbleAU1Tu5D1hDWez-272" target="smbsbleAU1Tu5D1hDWez-902">
          <mxGeometry relative="1" as="geometry">
            <mxPoint x="470" y="1970" as="sourcePoint" />
            <mxPoint x="460" y="2650" as="targetPoint" />
            <Array as="points">
              <mxPoint x="460" y="2798" />
            </Array>
          </mxGeometry>
        </mxCell>
        <mxCell id="smbsbleAU1Tu5D1hDWez-910" value="" style="edgeStyle=orthogonalEdgeStyle;rounded=0;orthogonalLoop=1;jettySize=auto;html=1;strokeWidth=5;strokeColor=#003366;entryX=0;entryY=0.5;entryDx=0;entryDy=0;exitX=0.5;exitY=1;exitDx=0;exitDy=0;" edge="1" parent="smbsbleAU1Tu5D1hDWez-124" source="smbsbleAU1Tu5D1hDWez-902" target="smbsbleAU1Tu5D1hDWez-404">
          <mxGeometry relative="1" as="geometry">
            <mxPoint x="220" y="2950" as="sourcePoint" />
            <mxPoint x="470" y="4290" as="targetPoint" />
          </mxGeometry>
        </mxCell>
        <mxCell id="smbsbleAU1Tu5D1hDWez-262" value="SEO Dasar" style="whiteSpace=wrap;html=1;rounded=1;shadow=1;comic=0;labelBackgroundColor=none;strokeWidth=2;fontFamily=Verdana;fontSize=12;align=center;arcSize=50;fillColor=#dae8fc;strokeColor=#6c8ebf;" vertex="1" parent="1">
          <mxGeometry x="1690" y="310" width="180" height="40" as="geometry" />
        </mxCell>
        <mxCell id="smbsbleAU1Tu5D1hDWez-263" value="Tips HTML" style="whiteSpace=wrap;html=1;rounded=1;shadow=1;comic=0;labelBackgroundColor=none;strokeWidth=2;fontFamily=Verdana;fontSize=12;align=center;arcSize=50;" vertex="1" parent="1">
          <mxGeometry x="1690" y="360" width="180" height="40" as="geometry" />
        </mxCell>
        <mxCell id="smbsbleAU1Tu5D1hDWez-265" value="" style="endArrow=none;html=1;exitX=0;exitY=0.5;exitDx=0;exitDy=0;entryX=1;entryY=0.5;entryDx=0;entryDy=0;" edge="1" parent="1" source="smbsbleAU1Tu5D1hDWez-237" target="smbsbleAU1Tu5D1hDWez-184">
          <mxGeometry width="50" height="50" relative="1" as="geometry">
            <mxPoint x="1244" y="110" as="sourcePoint" />
            <mxPoint x="1299" y="137" as="targetPoint" />
          </mxGeometry>
        </mxCell>
        <mxCell id="smbsbleAU1Tu5D1hDWez-266" value="" style="endArrow=none;html=1;exitX=0;exitY=0.5;exitDx=0;exitDy=0;entryX=1;entryY=0.75;entryDx=0;entryDy=0;" edge="1" parent="1" source="smbsbleAU1Tu5D1hDWez-261" target="smbsbleAU1Tu5D1hDWez-184">
          <mxGeometry width="50" height="50" relative="1" as="geometry">
            <mxPoint x="1700" y="240" as="sourcePoint" />
            <mxPoint x="1630" y="240" as="targetPoint" />
          </mxGeometry>
        </mxCell>
        <mxCell id="smbsbleAU1Tu5D1hDWez-267" value="" style="endArrow=none;html=1;exitX=0;exitY=0.5;exitDx=0;exitDy=0;entryX=1;entryY=1;entryDx=0;entryDy=0;" edge="1" parent="1" source="smbsbleAU1Tu5D1hDWez-262" target="smbsbleAU1Tu5D1hDWez-184">
          <mxGeometry width="50" height="50" relative="1" as="geometry">
            <mxPoint x="1700" y="290" as="sourcePoint" />
            <mxPoint x="1630" y="255" as="targetPoint" />
          </mxGeometry>
        </mxCell>
        <mxCell id="smbsbleAU1Tu5D1hDWez-268" value="" style="endArrow=none;html=1;exitX=0;exitY=0.5;exitDx=0;exitDy=0;entryX=0.75;entryY=1;entryDx=0;entryDy=0;" edge="1" parent="1" source="smbsbleAU1Tu5D1hDWez-263" target="smbsbleAU1Tu5D1hDWez-184">
          <mxGeometry width="50" height="50" relative="1" as="geometry">
            <mxPoint x="1700" y="340" as="sourcePoint" />
            <mxPoint x="1630" y="270" as="targetPoint" />
          </mxGeometry>
        </mxCell>
        <mxCell id="smbsbleAU1Tu5D1hDWez-271" value="" style="edgeStyle=orthogonalEdgeStyle;rounded=0;orthogonalLoop=1;jettySize=auto;html=1;strokeWidth=5;strokeColor=#003366;entryX=0;entryY=0.5;entryDx=0;entryDy=0;exitX=0.5;exitY=1;exitDx=0;exitDy=0;" edge="1" parent="1" source="smbsbleAU1Tu5D1hDWez-178" target="smbsbleAU1Tu5D1hDWez-184">
          <mxGeometry relative="1" as="geometry">
            <mxPoint x="1184" y="-49" as="sourcePoint" />
            <mxPoint x="1184" y="90" as="targetPoint" />
          </mxGeometry>
        </mxCell>
        <mxCell id="smbsbleAU1Tu5D1hDWez-347" value="" style="edgeStyle=orthogonalEdgeStyle;rounded=0;orthogonalLoop=1;jettySize=auto;html=1;strokeWidth=5;strokeColor=#003366;entryX=0.5;entryY=0;entryDx=0;entryDy=0;" edge="1" parent="1" source="smbsbleAU1Tu5D1hDWez-184" target="smbsbleAU1Tu5D1hDWez-272">
          <mxGeometry relative="1" as="geometry">
            <mxPoint x="1184" y="150" as="sourcePoint" />
            <mxPoint x="1510" y="240" as="targetPoint" />
          </mxGeometry>
        </mxCell>
        <mxCell id="smbsbleAU1Tu5D1hDWez-351" value="CSS Frameworks" style="whiteSpace=wrap;html=1;rounded=1;shadow=1;comic=0;labelBackgroundColor=none;strokeWidth=2;fontFamily=Verdana;fontSize=12;align=center;arcSize=50;fillColor=#dae8fc;strokeColor=#6c8ebf;" vertex="1" parent="1">
          <mxGeometry x="1690" y="830" width="180" height="40" as="geometry" />
        </mxCell>
        <mxCell id="smbsbleAU1Tu5D1hDWez-399" value="" style="endArrow=none;html=1;exitX=0;exitY=0.5;exitDx=0;exitDy=0;entryX=0.5;entryY=1;entryDx=0;entryDy=0;" edge="1" parent="1" source="smbsbleAU1Tu5D1hDWez-351" target="smbsbleAU1Tu5D1hDWez-272">
          <mxGeometry width="50" height="50" relative="1" as="geometry">
            <mxPoint x="1700" y="810" as="sourcePoint" />
            <mxPoint x="1600" y="500" as="targetPoint" />
          </mxGeometry>
        </mxCell>
        <mxCell id="smbsbleAU1Tu5D1hDWez-400" value="" style="endArrow=none;html=1;exitX=0;exitY=0.5;exitDx=0;exitDy=0;entryX=1;entryY=0.5;entryDx=0;entryDy=0;" edge="1" parent="1" source="smbsbleAU1Tu5D1hDWez-394" target="smbsbleAU1Tu5D1hDWez-351">
          <mxGeometry width="50" height="50" relative="1" as="geometry">
            <mxPoint x="1960" y="740" as="sourcePoint" />
            <mxPoint x="1835" y="610" as="targetPoint" />
          </mxGeometry>
        </mxCell>
        <mxCell id="smbsbleAU1Tu5D1hDWez-401" value="" style="endArrow=none;html=1;exitX=0;exitY=0.5;exitDx=0;exitDy=0;entryX=1;entryY=0.75;entryDx=0;entryDy=0;" edge="1" parent="1" source="smbsbleAU1Tu5D1hDWez-395" target="smbsbleAU1Tu5D1hDWez-351">
          <mxGeometry width="50" height="50" relative="1" as="geometry">
            <mxPoint x="1960" y="860" as="sourcePoint" />
            <mxPoint x="1880" y="860" as="targetPoint" />
          </mxGeometry>
        </mxCell>
        <mxCell id="smbsbleAU1Tu5D1hDWez-402" value="" style="endArrow=none;html=1;exitX=0;exitY=0.5;exitDx=0;exitDy=0;entryX=0.904;entryY=0.993;entryDx=0;entryDy=0;entryPerimeter=0;" edge="1" parent="1" source="smbsbleAU1Tu5D1hDWez-396" target="smbsbleAU1Tu5D1hDWez-351">
          <mxGeometry width="50" height="50" relative="1" as="geometry">
            <mxPoint x="1960" y="910" as="sourcePoint" />
            <mxPoint x="1858" y="910" as="targetPoint" />
          </mxGeometry>
        </mxCell>
        <mxCell id="smbsbleAU1Tu5D1hDWez-403" value="" style="endArrow=none;html=1;exitX=0;exitY=0.5;exitDx=0;exitDy=0;entryX=0.75;entryY=1;entryDx=0;entryDy=0;" edge="1" parent="1" source="smbsbleAU1Tu5D1hDWez-397" target="smbsbleAU1Tu5D1hDWez-351">
          <mxGeometry width="50" height="50" relative="1" as="geometry">
            <mxPoint x="1960" y="960" as="sourcePoint" />
            <mxPoint x="1862.7200000000003" y="879.7200000000003" as="targetPoint" />
          </mxGeometry>
        </mxCell>
        <mxCell id="smbsbleAU1Tu5D1hDWez-557" value="" style="endArrow=none;html=1;exitX=0;exitY=0.5;exitDx=0;exitDy=0;exitPerimeter=0;" edge="1" parent="1" source="smbsbleAU1Tu5D1hDWez-478">
          <mxGeometry width="50" height="50" relative="1" as="geometry">
            <mxPoint x="1700" y="1320" as="sourcePoint" />
            <mxPoint x="1620" y="1270" as="targetPoint" />
          </mxGeometry>
        </mxCell>
        <mxCell id="smbsbleAU1Tu5D1hDWez-659" value="CSS High Level" style="rounded=1;whiteSpace=wrap;html=1;shadow=1;comic=0;labelBackgroundColor=none;strokeWidth=2;fontFamily=Verdana;fontSize=12;align=center;fillColor=#0050ef;strokeColor=#001DBC;fontColor=#ffffff;" vertex="1" parent="1">
          <mxGeometry x="1500" y="2580" width="120" height="60" as="geometry" />
        </mxCell>
        <mxCell id="smbsbleAU1Tu5D1hDWez-887" value="" style="endArrow=none;html=1;exitX=0;exitY=0.5;exitDx=0;exitDy=0;entryX=1;entryY=0.5;entryDx=0;entryDy=0;" edge="1" parent="1" source="smbsbleAU1Tu5D1hDWez-752" target="smbsbleAU1Tu5D1hDWez-659">
          <mxGeometry width="50" height="50" relative="1" as="geometry">
            <mxPoint x="1700" y="2540" as="sourcePoint" />
            <mxPoint x="1580" y="2340" as="targetPoint" />
          </mxGeometry>
        </mxCell>
        <mxCell id="smbsbleAU1Tu5D1hDWez-894" value="" style="endArrow=none;html=1;entryX=0.75;entryY=1;entryDx=0;entryDy=0;exitX=0;exitY=0.5;exitDx=0;exitDy=0;" edge="1" parent="1" source="smbsbleAU1Tu5D1hDWez-846" target="smbsbleAU1Tu5D1hDWez-659">
          <mxGeometry width="50" height="50" relative="1" as="geometry">
            <mxPoint x="1680" y="2870" as="sourcePoint" />
            <mxPoint x="1630" y="2620" as="targetPoint" />
          </mxGeometry>
        </mxCell>
        <mxCell id="smbsbleAU1Tu5D1hDWez-895" value="" style="edgeStyle=orthogonalEdgeStyle;rounded=0;orthogonalLoop=1;jettySize=auto;html=1;strokeWidth=5;strokeColor=#003366;exitX=0.5;exitY=1;exitDx=0;exitDy=0;entryX=0.5;entryY=0;entryDx=0;entryDy=0;" edge="1" parent="1" source="smbsbleAU1Tu5D1hDWez-404" target="smbsbleAU1Tu5D1hDWez-659">
          <mxGeometry relative="1" as="geometry">
            <mxPoint x="1580" y="1020" as="sourcePoint" />
            <mxPoint x="1550" y="1990" as="targetPoint" />
          </mxGeometry>
        </mxCell>
        <mxCell id="smbsbleAU1Tu5D1hDWez-896" value="" style="edgeStyle=orthogonalEdgeStyle;rounded=0;orthogonalLoop=1;jettySize=auto;html=1;strokeWidth=5;strokeColor=#003366;entryX=0.5;entryY=0;entryDx=0;entryDy=0;exitX=0.5;exitY=1;exitDx=0;exitDy=0;" edge="1" parent="1" source="smbsbleAU1Tu5D1hDWez-659" target="smbsbleAU1Tu5D1hDWez-885">
          <mxGeometry relative="1" as="geometry">
            <mxPoint x="1600" y="2400" as="sourcePoint" />
            <mxPoint x="1570" y="2590" as="targetPoint" />
          </mxGeometry>
        </mxCell>
        <mxCell id="smbsbleAU1Tu5D1hDWez-897" value="" style="edgeStyle=orthogonalEdgeStyle;rounded=0;orthogonalLoop=1;jettySize=auto;html=1;strokeWidth=5;strokeColor=#003366;entryX=0.5;entryY=0;entryDx=0;entryDy=0;" edge="1" parent="1" target="smbsbleAU1Tu5D1hDWez-886">
          <mxGeometry relative="1" as="geometry">
            <mxPoint x="1560" y="3170" as="sourcePoint" />
            <mxPoint x="1570" y="3120" as="targetPoint" />
          </mxGeometry>
        </mxCell>
      </root>
    </mxGraphModel>
  </diagram>
</mxfile>
